<svg width="2130" height="383" viewBox="0 0 2130 383" fill="none" xmlns="http://www.w3.org/2000/svg">
	<g>
		<path
			fill-rule="evenodd"
			clip-rule="evenodd"
			d="M478.535 61.9492V313.907H519.274V208.092H630.654V171.834H519.274V99.3171H635.889V61.9492H478.535ZM1729.92 213.642C1729.92 274.319 1770.28 319.457 1830.83 319.457C1872.69 319.457 1904.09 298.368 1920.91 260.999L1886.15 245.83C1875.68 269.509 1857 284.678 1830.83 284.678C1791.96 284.678 1767.67 253.23 1767.67 213.642C1767.67 173.684 1792.33 142.975 1830.83 142.975C1856.62 142.975 1875.31 157.775 1886.15 181.083L1920.53 165.544C1903.71 128.916 1872.32 108.197 1830.83 108.197C1770.28 108.197 1729.92 152.965 1729.92 213.642ZM1933.22 214.382C1933.22 275.059 1973.59 319.457 2033.76 319.457C2073.76 319.457 2106.27 302.067 2124.21 266.179L2092.07 250.27C2080.48 273.209 2060.67 285.418 2035.26 285.418C1999 285.418 1974.71 259.89 1970.6 224.371H2127.95C2128.7 218.821 2129.07 214.012 2129.07 208.462C2129.07 147.785 2095.06 108.197 2034.14 108.197C1973.96 108.197 1933.22 153.334 1933.22 214.382ZM2093.19 194.033H1972.09C1979.19 163.694 2001.62 142.235 2034.14 142.235C2068.52 142.235 2088.7 162.584 2093.19 194.033ZM1532.94 313.907V114.117H1571.44C1571.44 127.066 1571.44 134.096 1571.06 146.305H1571.81C1583.77 123.736 1606.57 109.307 1634.98 109.307C1683.94 109.307 1708.98 143.715 1708.98 187.373V313.907H1670.49V197.363C1670.49 166.284 1654.04 144.085 1621.9 144.085C1589.01 144.085 1571.44 169.614 1571.44 199.212V313.907H1532.94ZM1306.16 214.752C1306.16 275.059 1344.65 319.086 1398.85 319.086C1427.25 319.086 1453.04 305.027 1467.25 282.088H1467.99C1467.62 295.038 1467.62 300.218 1467.62 313.907H1506.12V114.117H1467.62C1467.62 127.806 1467.62 135.205 1467.99 146.675H1467.25C1453.79 122.256 1429.87 109.677 1398.85 109.677C1345.78 109.677 1306.16 154.814 1306.16 214.752ZM1469.12 214.382C1469.12 256.19 1444.45 284.308 1406.32 284.308C1369.32 284.308 1344.65 254.34 1344.65 214.752C1344.65 175.163 1369.32 144.455 1406.32 144.455C1444.07 144.455 1469.12 173.314 1469.12 214.382ZM994.938 313.907V114.117H1033.43C1033.43 127.806 1033.43 133.355 1033.06 146.305H1033.81C1046.14 122.996 1067.07 109.307 1093.98 109.307C1123.51 109.307 1142.2 124.476 1151.17 145.935H1151.91C1164.25 122.626 1186.68 109.307 1214.71 109.307C1264.42 109.307 1284.97 144.455 1284.97 187.373V313.907H1246.48V195.513C1246.48 165.174 1231.9 143.715 1203.87 143.715C1174.71 143.715 1159.39 165.174 1159.39 195.513V313.907H1120.9V195.513C1120.9 165.174 1105.57 143.715 1079.03 143.715C1051.37 143.715 1033.43 168.874 1033.43 196.992V313.907H994.938ZM875.219 114.117V313.907H913.715V206.242C913.715 174.794 931.654 148.895 966.042 148.895H979.87V114.117C976.133 113.747 972.396 113.747 969.03 113.747C945.111 113.747 925.3 125.216 913.715 147.415H913.34C913.715 134.835 913.715 127.066 913.715 114.117H875.219ZM751.571 319.457C691.021 319.457 649.163 273.949 649.163 213.642C649.163 153.334 691.021 108.567 751.571 108.567C811.747 108.567 853.609 153.334 853.609 213.642C853.609 273.579 811.747 319.457 751.571 319.457ZM751.571 284.678C789.696 284.678 814.364 252.49 814.364 213.642C814.364 174.424 790.067 142.975 751.571 142.975C712.701 142.975 688.033 174.424 688.033 213.642C688.033 252.49 712.701 284.678 751.571 284.678Z"
			fill="currentColor"
		/>
		<path
			d="M214.575 101.539L248.749 9.71251C235.899 5.19393 222.619 2.30241 209.219 1.01888V49.931H177.715V0.980713C164.175 2.24038 150.751 5.1462 137.76 9.71251L171.936 101.539C179.238 121.16 207.272 121.16 214.575 101.539Z"
			fill="currentColor"
		/>
		<path
			d="M361.78 101.568L272.019 142.579C252.839 151.339 233.019 131.719 241.869 112.733L283.298 23.8789C295.744 29.743 307.312 37.0863 317.786 45.6701L282.816 80.2872L305.095 102.341L340.036 67.7524C348.592 78.0349 355.918 89.3767 361.78 101.568Z"
			fill="currentColor"
		/>
		<path
			d="M376.094 245.631L283.33 211.802H283.335C263.514 204.573 263.514 176.822 283.335 169.593L376.099 135.763C380.712 148.623 383.647 161.911 384.92 175.314H335.465V206.5H384.876C383.58 219.76 380.659 232.906 376.094 245.631Z"
			fill="currentColor"
		/>
		<path
			d="M283.298 357.524L241.869 268.67C233.019 249.684 252.839 230.064 272.019 238.824L361.78 279.835C355.856 292.155 348.438 303.607 339.766 313.975L304.796 279.358L282.517 301.412L317.459 336C307.071 344.469 295.614 351.722 283.298 357.524Z"
			fill="currentColor"
		/>
		<path
			d="M171.936 279.862L137.76 371.689C150.616 376.208 163.895 379.1 177.29 380.383V331.471H208.795V380.426C222.335 379.166 235.759 376.26 248.749 371.694L214.575 279.867C207.272 260.247 179.238 260.247 171.936 279.867V279.862Z"
			fill="currentColor"
		/>
		<path
			d="M103.212 23.8789L144.641 112.733C153.491 131.719 133.67 151.339 114.491 142.579L24.73 101.568C30.654 89.2481 38.0722 77.7963 46.7436 67.428L81.7139 102.045L103.993 79.9915L69.0512 45.4029C79.4387 36.9336 90.8961 29.681 103.212 23.8789Z"
			fill="currentColor"
		/>
		<path
			d="M10.419 135.763L103.183 169.598C123.003 176.827 123.003 204.578 103.183 211.806L10.419 245.636C5.80613 232.777 2.87067 219.488 1.59814 206.085H51.048V174.899H1.63671C2.93333 161.634 5.85434 148.489 10.419 135.763Z"
			fill="currentColor"
		/>
		<path
			d="M24.73 279.835L114.491 238.824C133.67 230.064 153.491 249.684 144.641 268.67L103.212 357.524C90.7663 351.66 79.1976 344.317 68.7235 335.733L103.694 301.116L81.4151 279.062L46.4736 313.651C37.9179 303.368 30.5913 292.026 24.73 279.835Z"
			fill="currentColor"
		/>
	</g>
</svg>