<svg width="1146" height="206" viewBox="0 0 1146 206" fill="none" xmlns="http://www.w3.org/2000/svg">
<g clip-path="url(#clip0_289_573)">
<path fill-rule="evenodd" clip-rule="evenodd" d="M257.623 33.4021V168.921H279.535V112.007H339.442V92.5052H279.535V53.501H342.258V33.4021H257.623ZM930.699 114.992C930.699 147.628 952.409 171.906 984.977 171.906C1007.49 171.906 1024.38 160.563 1033.42 140.464L1014.73 132.305C1009.1 145.041 999.049 153.2 984.977 153.2C964.07 153.2 951.001 136.285 951.001 114.992C951.001 93.5002 964.269 76.983 984.977 76.983C998.847 76.983 1008.9 84.9432 1014.73 97.48L1033.22 89.1222C1024.18 69.421 1007.29 58.2771 984.977 58.2771C952.409 58.2771 930.699 82.356 930.699 114.992ZM1040.05 115.39C1040.05 148.026 1061.76 171.906 1094.13 171.906C1115.64 171.906 1133.13 162.553 1142.77 143.25L1125.49 134.693C1119.25 147.031 1108.6 153.598 1094.93 153.598C1075.43 153.598 1062.36 139.867 1060.15 120.763H1144.78C1145.19 117.778 1145.39 115.191 1145.39 112.206C1145.39 79.5702 1127.09 58.2771 1094.33 58.2771C1061.96 58.2771 1040.05 82.555 1040.05 115.39ZM1126.09 104.445H1060.96C1064.77 88.1272 1076.84 76.5851 1094.33 76.5851C1112.82 76.5851 1123.68 87.5301 1126.09 104.445ZM824.752 168.921V61.4611H845.458C845.458 68.426 845.458 72.2071 845.256 78.7741H845.659C852.091 66.6351 864.354 58.874 879.632 58.874C905.969 58.874 919.436 77.3812 919.436 100.863V168.921H898.731V106.236C898.731 89.5201 889.886 77.5801 872.598 77.5801C854.907 77.5801 845.458 91.3112 845.458 107.231V168.921H824.752ZM702.772 115.589C702.772 148.026 723.478 171.707 752.628 171.707C767.906 171.707 781.776 164.145 789.417 151.807H789.818C789.616 158.772 789.616 161.558 789.616 168.921H810.324V61.4611H789.616C789.616 68.8241 789.616 72.804 789.818 78.9731H789.417C782.179 65.8391 769.313 59.0732 752.628 59.0732C724.082 59.0732 702.772 83.351 702.772 115.589ZM790.422 115.39C790.422 137.877 777.154 153.001 756.648 153.001C736.746 153.001 723.478 136.882 723.478 115.589C723.478 94.296 736.746 77.7791 756.648 77.7791C776.952 77.7791 790.422 93.301 790.422 115.39ZM535.378 168.921V61.4611H556.084C556.084 68.8241 556.084 71.809 555.882 78.7741H556.285C562.919 66.237 574.177 58.874 588.651 58.874C604.531 58.874 614.583 67.0331 619.409 78.5751H619.809C626.443 66.038 638.507 58.874 653.584 58.874C680.321 58.874 691.378 77.7791 691.378 100.863V168.921H670.672V105.241C670.672 88.923 662.832 77.3812 647.753 77.3812C632.072 77.3812 623.831 88.923 623.831 105.241V168.921H603.126V105.241C603.126 88.923 594.883 77.3812 580.61 77.3812C565.732 77.3812 556.084 90.913 556.084 106.037V168.921H535.378ZM470.985 61.4611V168.921H491.691V111.012C491.691 94.0971 501.339 80.167 519.836 80.167H527.273V61.4611C525.263 61.2621 523.253 61.2621 521.443 61.2621C508.578 61.2621 497.922 67.431 491.691 79.3712H491.489C491.691 72.605 491.691 68.426 491.691 61.4611H470.985ZM404.479 171.906C371.912 171.906 349.398 147.429 349.398 114.992C349.398 82.555 371.912 58.4761 404.479 58.4761C436.846 58.4761 459.362 82.555 459.362 114.992C459.362 147.23 436.846 171.906 404.479 171.906ZM404.479 153.2C424.986 153.2 438.254 135.887 438.254 114.992C438.254 93.8981 425.185 76.983 404.479 76.983C383.572 76.983 370.304 93.8981 370.304 114.992C370.304 135.887 383.572 153.2 404.479 153.2Z" fill="#EBF0F0" style="fill:#EBF0F0;fill:color(display-p3 0.9216 0.9412 0.9412);fill-opacity:1;"/>
<path d="M115.648 54.6963L134.029 5.3059C127.117 2.87551 119.975 1.32027 112.767 0.629905V26.938H95.8221V0.609375C88.5394 1.2869 81.3192 2.84984 74.3321 5.3059L92.7136 54.6963C96.6414 65.2494 111.72 65.2494 115.648 54.6963Z" fill="#EBF0F0" style="fill:#EBF0F0;fill:color(display-p3 0.9216 0.9412 0.9412);fill-opacity:1;"/>
<path d="M194.824 54.7117L146.545 76.7698C136.229 81.4818 125.568 70.9287 130.328 60.7171L152.612 12.9255C159.306 16.0796 165.528 20.0293 171.162 24.6462L152.352 43.2655L164.335 55.1274L183.129 36.5235C187.731 42.0541 191.672 48.1544 194.824 54.7117Z" fill="#EBF0F0" style="fill:#EBF0F0;fill:color(display-p3 0.9216 0.9412 0.9412);fill-opacity:1;"/>
<path d="M202.523 132.198L152.629 114.002H152.631C141.971 110.114 141.971 95.1881 152.631 91.3001L202.526 73.1042C205.007 80.0207 206.586 87.1682 207.27 94.3771H180.67V111.151H207.247C206.55 118.283 204.978 125.354 202.523 132.198Z" fill="#EBF0F0" style="fill:#EBF0F0;fill:color(display-p3 0.9216 0.9412 0.9412);fill-opacity:1;"/>
<path d="M152.612 192.382L130.328 144.59C125.568 134.378 136.229 123.825 146.545 128.537L194.824 150.595C191.638 157.222 187.648 163.381 182.984 168.958L164.175 150.339L152.192 162.201L170.985 180.804C165.398 185.36 159.236 189.261 152.612 192.382Z" fill="#EBF0F0" style="fill:#EBF0F0;fill:color(display-p3 0.9216 0.9412 0.9412);fill-opacity:1;"/>
<path d="M92.7136 150.61L74.3321 200C81.2466 202.431 88.3892 203.986 95.5938 204.676V178.368H112.539V204.7C119.822 204.022 127.042 202.459 134.029 200.003L115.648 150.613C111.72 140.06 96.6414 140.06 92.7136 150.613V150.61Z" fill="#EBF0F0" style="fill:#EBF0F0;fill:color(display-p3 0.9216 0.9412 0.9412);fill-opacity:1;"/>
<path d="M55.7496 12.9255L78.0328 60.7171C82.7929 70.9287 72.1321 81.4818 61.8163 76.7698L13.537 54.7117C16.7233 48.0853 20.7133 41.9258 25.3773 36.349L44.1867 54.9684L56.1696 43.1065L37.3758 24.5025C42.9629 19.9472 49.1254 16.0462 55.7496 12.9255Z" fill="#EBF0F0" style="fill:#EBF0F0;fill:color(display-p3 0.9216 0.9412 0.9412);fill-opacity:1;"/>
<path d="M5.83966 73.1042L55.7341 91.3025C66.3948 95.1906 66.3948 110.117 55.7341 114.005L5.83966 132.201C3.35854 125.284 1.77966 118.137 1.09521 110.928H27.6925V94.1539H1.11596C1.81336 87.0193 3.38447 79.9489 5.83966 73.1042Z" fill="#EBF0F0" style="fill:#EBF0F0;fill:color(display-p3 0.9216 0.9412 0.9412);fill-opacity:1;"/>
<path d="M13.537 150.595L61.8163 128.537C72.1321 123.825 82.7929 134.378 78.0328 144.59L55.7496 192.382C49.0556 189.227 42.8332 185.278 37.1996 180.661L56.0089 162.042L44.026 150.18L25.2322 168.783C20.6303 163.253 16.6896 157.152 13.537 150.595Z" fill="#EBF0F0" style="fill:#EBF0F0;fill:color(display-p3 0.9216 0.9412 0.9412);fill-opacity:1;"/>
</g>
<defs>
<clipPath id="clip0_289_573">
<rect width="1145.53" height="205.608" fill="white" style="fill:white;fill-opacity:1;" transform="translate(0.23584 0.196045)"/>
</clipPath>
</defs>
</svg>
