<svg width="690" height="266" xmlns="http://www.w3.org/2000/svg" fill="none">
    <g>
        <path id="svg_2" fill="black" d="m40,199.612c26.1746,0 47.3933,-21.219 47.3933,-47.393c0,-26.175 -21.2187,-47.394 -47.3933,-47.394l0,94.787z"/>
        <path id="svg_3" fill="black" d="m87.3933,57.2009c-26.1746,0 -47.3933,21.2187 -47.3933,47.3931c0,26.175 21.2187,47.394 47.3933,47.394l0,-94.7871z"/>
        <path id="svg_4" fill="#13E07E" d="m76.2637,206.882c25.3773,-6.41 40.7533,-32.179 34.3433,-57.557c-6.41,-25.377 -32.1787,-40.753 -57.5562,-34.343l23.2129,91.9z"/>
        <path id="svg_5" fill="#13E07E" d="m87.3378,57.201c-25.3775,6.4101 -40.7537,32.1791 -34.3436,57.557c6.41,25.377 32.179,40.753 57.5568,34.343l-23.2132,-91.9z"/>
        <path id="svg_6" fill="black" d="m76.3198,206.918c26.1742,0 47.3932,-21.219 47.3932,-47.394c0,-26.174 -21.219,-47.393 -47.3932,-47.393l0,94.787z"/>
        <path id="svg_7" fill="black" d="m123.713,64.5063c-26.1745,0 -47.3932,21.2188 -47.3932,47.3937c0,26.174 21.2187,47.393 47.3932,47.393l0,-94.7867z"/>
        <text stroke="null" font-weight="bold" xml:space="preserve" text-anchor="start" font-family="'Inter'" font-size="110" stroke-width="0" id="svg_8" y="176.24645" x="152.16668" fill="#000000">Formance</text>
    </g>
</svg>