<svg width="797" height="75" viewBox="0 0 797 75" fill="none" xmlns="http://www.w3.org/2000/svg">
<path d="M747 73.7216V0.994319H796.006V13.6719H762.376V31.0014H793.484V43.679H762.376V61.044H796.148V73.7216H747Z" fill="black"/>
<path d="M86.5256 37.358C86.5256 45.2888 88.0289 52.036 91.0355 57.5994C94.0185 63.1629 98.0904 67.4124 103.251 70.348C108.389 73.2599 114.165 74.7159 120.581 74.7159C127.044 74.7159 132.844 73.2481 137.982 70.3125C143.119 67.3769 147.179 63.1274 150.162 57.5639C153.145 52.0005 154.636 45.2652 154.636 37.358C154.636 29.4271 153.145 22.6799 150.162 17.1165C147.179 11.553 143.119 7.31534 137.982 4.40341C132.844 1.4678 127.044 0 120.581 0C114.165 0 108.389 1.4678 103.251 4.40341C98.0904 7.31534 94.0185 11.553 91.0355 17.1165C88.0289 22.6799 86.5256 29.4271 86.5256 37.358ZM102.115 37.358C102.115 32.2206 102.884 27.8883 104.423 24.3608C105.938 20.8333 108.081 18.1581 110.851 16.3352C113.621 14.5123 116.864 13.6009 120.581 13.6009C124.298 13.6009 127.541 14.5123 130.311 16.3352C133.081 18.1581 135.235 20.8333 136.774 24.3608C138.289 27.8883 139.047 32.2206 139.047 37.358C139.047 42.4953 138.289 46.8277 136.774 50.3551C135.235 53.8826 133.081 56.5578 130.311 58.3807C127.541 60.2036 124.298 61.1151 120.581 61.1151C116.864 61.1151 113.621 60.2036 110.851 58.3807C108.081 56.5578 105.938 53.8826 104.423 50.3551C102.884 46.8277 102.115 42.4953 102.115 37.358Z" fill="black"/>
<path d="M0 73.7216V0.994319H48.1534V13.6719H15.3764V31.0014H44.9574V43.679H15.3764V73.7216H0Z" fill="black"/>
<path d="M199 73.7216V0.994319H227.693C233.186 0.994319 237.873 1.9768 241.756 3.94176C245.662 5.88305 248.633 8.6411 250.669 12.2159C252.729 15.767 253.759 19.9455 253.759 24.7514C253.759 29.581 252.717 33.7358 250.634 37.2159C248.55 40.6723 245.532 43.3239 241.578 45.1705C237.648 47.017 232.89 47.9403 227.303 47.9403H208.091V35.5824H224.817C227.752 35.5824 230.191 35.1799 232.132 34.375C234.073 33.5701 235.518 32.3627 236.464 30.7528C237.435 29.143 237.92 27.1425 237.92 24.7514C237.92 22.3366 237.435 20.3007 236.464 18.6435C235.518 16.9863 234.062 15.7315 232.097 14.8793C230.155 14.0033 227.705 13.5653 224.746 13.5653H214.376V73.7216H199ZM238.276 40.625L256.351 73.7216H239.376L221.692 40.625H238.276Z" fill="black"/>
<path d="M377.358 0.721613H358.395L338.366 49.5852H337.514L317.486 0.721613H298.523V73.4489H313.438V26.1122H314.041L331.001 68.4489L332.862 73.0938H343.018L361.839 25.9347H362.443V73.4489H377.358V0.721613Z" fill="black"/>
<path d="M472.822 73.7216H489.3L464.193 0.994319H444.378L419.307 73.7216H435.784L454.001 17.6136H454.57L472.822 73.7216ZM473.852 45.1349H434.932V57.1378H473.852V45.1349Z" fill="black"/>
<path d="M531.527 73.4489V0.721594H544.808L576.449 46.4957H576.982V0.721594H592.358V73.4489H578.864L547.472 27.7102H546.832V73.4489H531.527Z" fill="black"/>
<path d="M702.169 26.456H686.615C686.331 24.4437 685.751 22.6562 684.875 21.0938C683.999 19.5076 682.875 18.1581 681.501 17.0455C680.128 15.9328 678.542 15.0805 676.743 14.4886C674.967 13.8968 673.038 13.6009 670.955 13.6009C667.19 13.6009 663.911 14.536 661.118 16.4062C658.324 18.2528 656.158 20.9517 654.619 24.5028C653.081 28.0303 652.311 32.3153 652.311 37.358C652.311 42.5426 653.081 46.8987 654.619 50.4261C656.182 53.9536 658.36 56.617 661.153 58.4162C663.947 60.2154 667.179 61.1151 670.848 61.1151C672.908 61.1151 674.813 60.8428 676.565 60.2983C678.341 59.7538 679.915 58.9607 681.288 57.919C682.661 56.8537 683.798 55.5634 684.697 54.0483C685.621 52.5331 686.26 50.8049 686.615 48.8636L702.169 48.9347C701.767 52.2727 700.76 55.4924 699.151 58.5938C697.564 61.6714 695.422 64.4295 692.723 66.8679C690.048 69.2827 686.852 71.2003 683.135 72.6207C679.442 74.0175 675.263 74.7159 670.599 74.7159C664.113 74.7159 658.312 73.2481 653.199 70.3125C648.109 67.3769 644.084 63.1274 641.125 57.5639C638.189 52.0005 636.722 45.2652 636.722 37.358C636.722 29.4271 638.213 22.6799 641.196 17.1165C644.179 11.553 648.227 7.31534 653.341 4.40341C658.455 1.4678 664.207 0 670.599 0C674.813 0 678.72 0.591856 682.318 1.77557C685.94 2.95928 689.148 4.6875 691.942 6.96023C694.735 9.20928 697.008 11.9673 698.76 15.2344C700.536 18.5014 701.672 22.242 702.169 26.456Z" fill="black"/>
</svg>
