<svg width="815" height="330" viewBox="0 0 815 330" fill="none" xmlns="http://www.w3.org/2000/svg">
<path d="M303.423 117.909V211H286.423L245.923 152.409H245.241V211H225.56V117.909H242.832L283.014 176.455H283.832V117.909H303.423ZM364.094 181.273V141.182H383.457V211H364.866V198.318H364.139C362.563 202.409 359.942 205.697 356.276 208.182C352.639 210.667 348.2 211.909 342.957 211.909C338.291 211.909 334.185 210.848 330.639 208.727C327.094 206.606 324.321 203.591 322.321 199.682C320.351 195.773 319.351 191.091 319.321 185.636V141.182H338.685V182.182C338.715 186.303 339.821 189.561 342.003 191.955C344.185 194.348 347.109 195.545 350.776 195.545C353.109 195.545 355.291 195.015 357.321 193.955C359.351 192.864 360.988 191.258 362.23 189.136C363.503 187.015 364.124 184.394 364.094 181.273ZM398.946 211V141.182H417.401V153.5H418.219C419.673 149.409 422.098 146.182 425.491 143.818C428.885 141.455 432.946 140.273 437.673 140.273C442.461 140.273 446.537 141.47 449.901 143.864C453.264 146.227 455.507 149.439 456.628 153.5H457.355C458.779 149.5 461.355 146.303 465.082 143.909C468.84 141.485 473.279 140.273 478.401 140.273C484.916 140.273 490.204 142.348 494.264 146.5C498.355 150.621 500.401 156.47 500.401 164.045V211H481.082V167.864C481.082 163.985 480.052 161.076 477.991 159.136C475.931 157.197 473.355 156.227 470.264 156.227C466.749 156.227 464.007 157.348 462.037 159.591C460.067 161.803 459.082 164.727 459.082 168.364V211H440.31V167.455C440.31 164.03 439.325 161.303 437.355 159.273C435.416 157.242 432.855 156.227 429.673 156.227C427.522 156.227 425.582 156.773 423.855 157.864C422.158 158.924 420.81 160.424 419.81 162.364C418.81 164.273 418.31 166.515 418.31 169.091V211H398.946ZM535.605 212.318C531.151 212.318 527.181 211.545 523.696 210C520.211 208.424 517.454 206.106 515.423 203.045C513.423 199.955 512.423 196.106 512.423 191.5C512.423 187.621 513.135 184.364 514.56 181.727C515.984 179.091 517.923 176.97 520.378 175.364C522.832 173.758 525.62 172.545 528.741 171.727C531.893 170.909 535.196 170.333 538.651 170C542.711 169.576 545.984 169.182 548.469 168.818C550.954 168.424 552.757 167.848 553.878 167.091C554.999 166.333 555.56 165.212 555.56 163.727V163.455C555.56 160.576 554.651 158.348 552.832 156.773C551.045 155.197 548.499 154.409 545.196 154.409C541.711 154.409 538.938 155.182 536.878 156.727C534.817 158.242 533.454 160.152 532.787 162.455L514.878 161C515.787 156.758 517.575 153.091 520.241 150C522.908 146.879 526.348 144.485 530.56 142.818C534.802 141.121 539.711 140.273 545.287 140.273C549.166 140.273 552.878 140.727 556.423 141.636C559.999 142.545 563.166 143.955 565.923 145.864C568.711 147.773 570.908 150.227 572.514 153.227C574.12 156.197 574.923 159.758 574.923 163.909V211H556.56V201.318H556.014C554.893 203.5 553.393 205.424 551.514 207.091C549.635 208.727 547.378 210.015 544.741 210.955C542.105 211.864 539.06 212.318 535.605 212.318ZM541.151 198.955C543.999 198.955 546.514 198.394 548.696 197.273C550.878 196.121 552.59 194.576 553.832 192.636C555.075 190.697 555.696 188.5 555.696 186.045V178.636C555.09 179.03 554.257 179.394 553.196 179.727C552.166 180.03 550.999 180.318 549.696 180.591C548.393 180.833 547.09 181.061 545.787 181.273C544.484 181.455 543.302 181.621 542.241 181.773C539.969 182.106 537.984 182.636 536.287 183.364C534.59 184.091 533.272 185.076 532.332 186.318C531.393 187.53 530.923 189.045 530.923 190.864C530.923 193.5 531.878 195.515 533.787 196.909C535.726 198.273 538.181 198.955 541.151 198.955ZM589.946 211V141.182H608.719V153.364H609.446C610.719 149.03 612.855 145.758 615.855 143.545C618.855 141.303 622.31 140.182 626.219 140.182C627.188 140.182 628.234 140.242 629.355 140.364C630.476 140.485 631.461 140.652 632.31 140.864V158.045C631.401 157.773 630.143 157.53 628.537 157.318C626.931 157.106 625.461 157 624.128 157C621.279 157 618.734 157.621 616.491 158.864C614.279 160.076 612.522 161.773 611.219 163.955C609.946 166.136 609.31 168.652 609.31 171.5V211H589.946ZM656.401 237.182C653.946 237.182 651.643 236.985 649.491 236.591C647.37 236.227 645.613 235.758 644.219 235.182L648.582 220.727C650.855 221.424 652.901 221.803 654.719 221.864C656.567 221.924 658.158 221.5 659.491 220.591C660.855 219.682 661.961 218.136 662.81 215.955L663.946 213L638.901 141.182H659.264L673.719 192.455H674.446L689.037 141.182H709.537L682.401 218.545C681.098 222.303 679.325 225.576 677.082 228.364C674.87 231.182 672.067 233.348 668.673 234.864C665.279 236.409 661.188 237.182 656.401 237.182Z" fill="black"/>
<path d="M102 231.612C128.175 231.612 149.393 210.393 149.393 184.219C149.393 158.044 128.175 136.825 102 136.825V231.612Z" fill="black"/>
<path d="M149.393 89.2009C123.219 89.2009 102 110.42 102 136.594C102 162.769 123.219 183.988 149.393 183.988L149.393 89.2009Z" fill="black"/>
<path d="M138.264 238.882C163.641 232.472 179.017 206.703 172.607 181.325C166.197 155.948 140.428 140.572 115.051 146.982L138.264 238.882Z" fill="#13E07E"/>
<path d="M149.338 89.201C123.96 95.6111 108.584 121.38 114.994 146.758C121.404 172.135 147.173 187.511 172.551 181.101L149.338 89.201Z" fill="#13E07E"/>
<path d="M138.32 238.918C164.494 238.918 185.713 217.699 185.713 191.524C185.713 165.35 164.494 144.131 138.32 144.131V238.918Z" fill="black"/>
<path d="M185.713 96.5063C159.539 96.5063 138.32 117.725 138.32 143.9C138.32 170.074 159.539 191.293 185.713 191.293L185.713 96.5063Z" fill="black"/>
</svg>
