<svg width="1005" height="238" viewBox="0 0 1005 238" fill="none" xmlns="http://www.w3.org/2000/svg">
<path d="M851 155.722V82.9943H900.006V95.6719H866.376V113.001H897.484V125.679H866.376V143.044H900.148V155.722H851Z" fill="black"/>
<path d="M190.526 119.358C190.526 127.289 192.029 134.036 195.036 139.599C198.018 145.163 202.09 149.412 207.251 152.348C212.389 155.26 218.165 156.716 224.581 156.716C231.044 156.716 236.844 155.248 241.982 152.312C247.119 149.377 251.179 145.127 254.162 139.564C257.145 134 258.636 127.265 258.636 119.358C258.636 111.427 257.145 104.68 254.162 99.1165C251.179 93.553 247.119 89.3153 241.982 86.4034C236.844 83.4678 231.044 82 224.581 82C218.165 82 212.389 83.4678 207.251 86.4034C202.09 89.3153 198.018 93.553 195.036 99.1165C192.029 104.68 190.526 111.427 190.526 119.358ZM206.115 119.358C206.115 114.221 206.884 109.888 208.423 106.361C209.938 102.833 212.081 100.158 214.851 98.3352C217.621 96.5123 220.864 95.6009 224.581 95.6009C228.298 95.6009 231.541 96.5123 234.311 98.3352C237.081 100.158 239.235 102.833 240.774 106.361C242.289 109.888 243.047 114.221 243.047 119.358C243.047 124.495 242.289 128.828 240.774 132.355C239.235 135.883 237.081 138.558 234.311 140.381C231.541 142.204 228.298 143.115 224.581 143.115C220.864 143.115 217.621 142.204 214.851 140.381C212.081 138.558 209.938 135.883 208.423 132.355C206.884 128.828 206.115 124.495 206.115 119.358Z" fill="black"/>
<path d="M104 155.722V82.9943H152.153V95.6719H119.376V113.001H148.957V125.679H119.376V155.722H104Z" fill="black"/>
<path d="M303 155.722V82.9943H331.693C337.186 82.9943 341.873 83.9768 345.756 85.9418C349.662 87.883 352.633 90.6411 354.669 94.2159C356.729 97.767 357.759 101.946 357.759 106.751C357.759 111.581 356.717 115.736 354.634 119.216C352.55 122.672 349.532 125.324 345.578 127.17C341.648 129.017 336.89 129.94 331.303 129.94H312.091V117.582H328.817C331.752 117.582 334.191 117.18 336.132 116.375C338.073 115.57 339.518 114.363 340.464 112.753C341.435 111.143 341.92 109.143 341.92 106.751C341.92 104.337 341.435 102.301 340.464 100.643C339.518 98.9863 338.062 97.7315 336.097 96.8793C334.155 96.0033 331.705 95.5653 328.746 95.5653H318.376V155.722H303ZM342.276 122.625L360.351 155.722H343.376L325.692 122.625H342.276Z" fill="black"/>
<path d="M481.358 82.7216H462.395L442.366 131.585H441.514L421.486 82.7216H402.523V155.449H417.438V108.112H418.041L435.001 150.449L436.862 155.094H447.018L465.839 107.935H466.443V155.449H481.358V82.7216Z" fill="black"/>
<path d="M576.822 155.722H593.3L568.193 82.9943H548.378L523.307 155.722H539.784L558.001 99.6136H558.57L576.822 155.722ZM577.852 127.135H538.932V139.138H577.852V127.135Z" fill="black"/>
<path d="M635.527 155.449V82.7216H648.808L680.449 128.496H680.982V82.7216H696.358V155.449H682.864L651.472 109.71H650.832V155.449H635.527Z" fill="black"/>
<path d="M806.169 108.456H790.615C790.331 106.444 789.751 104.656 788.875 103.094C787.999 101.508 786.875 100.158 785.501 99.0455C784.128 97.9328 782.542 97.0805 780.743 96.4886C778.967 95.8968 777.038 95.6009 774.955 95.6009C771.19 95.6009 767.911 96.536 765.118 98.4062C762.324 100.253 760.158 102.952 758.619 106.503C757.08 110.03 756.311 114.315 756.311 119.358C756.311 124.543 757.08 128.899 758.619 132.426C760.182 135.954 762.36 138.617 765.153 140.416C767.947 142.215 771.179 143.115 774.848 143.115C776.908 143.115 778.813 142.843 780.565 142.298C782.341 141.754 783.915 140.961 785.288 139.919C786.661 138.854 787.798 137.563 788.697 136.048C789.621 134.533 790.26 132.805 790.615 130.864L806.169 130.935C805.767 134.273 804.76 137.492 803.151 140.594C801.564 143.671 799.422 146.429 796.723 148.868C794.048 151.283 790.852 153.2 787.135 154.621C783.442 156.018 779.263 156.716 774.599 156.716C768.113 156.716 762.312 155.248 757.199 152.312C752.109 149.377 748.084 145.127 745.125 139.564C742.189 134 740.722 127.265 740.722 119.358C740.722 111.427 742.213 104.68 745.196 99.1165C748.179 93.553 752.227 89.3153 757.341 86.4034C762.455 83.4678 768.207 82 774.599 82C778.813 82 782.72 82.5919 786.318 83.7756C789.94 84.9593 793.148 86.6875 795.942 88.9602C798.735 91.2093 801.008 93.9673 802.76 97.2344C804.536 100.501 805.672 104.242 806.169 108.456Z" fill="black"/>
</svg>
