<svg width="1103" height="344" viewBox="0 0 1103 344" fill="none" xmlns="http://www.w3.org/2000/svg">
<path d="M900 208.722V135.994H949.006V148.672H915.376V166.001H946.484V178.679H915.376V196.044H949.148V208.722H900Z" fill="black"/>
<path d="M239.526 172.358C239.526 180.289 241.029 187.036 244.036 192.599C247.018 198.163 251.09 202.412 256.251 205.348C261.389 208.26 267.165 209.716 273.581 209.716C280.044 209.716 285.844 208.248 290.982 205.312C296.119 202.377 300.179 198.127 303.162 192.564C306.145 187 307.636 180.265 307.636 172.358C307.636 164.427 306.145 157.68 303.162 152.116C300.179 146.553 296.119 142.315 290.982 139.403C285.844 136.468 280.044 135 273.581 135C267.165 135 261.389 136.468 256.251 139.403C251.09 142.315 247.018 146.553 244.036 152.116C241.029 157.68 239.526 164.427 239.526 172.358ZM255.115 172.358C255.115 167.221 255.884 162.888 257.423 159.361C258.938 155.833 261.081 153.158 263.851 151.335C266.621 149.512 269.864 148.601 273.581 148.601C277.298 148.601 280.541 149.512 283.311 151.335C286.081 153.158 288.235 155.833 289.774 159.361C291.289 162.888 292.047 167.221 292.047 172.358C292.047 177.495 291.289 181.828 289.774 185.355C288.235 188.883 286.081 191.558 283.311 193.381C280.541 195.204 277.298 196.115 273.581 196.115C269.864 196.115 266.621 195.204 263.851 193.381C261.081 191.558 258.938 188.883 257.423 185.355C255.884 181.828 255.115 177.495 255.115 172.358Z" fill="black"/>
<path d="M153 208.722V135.994H201.153V148.672H168.376V166.001H197.957V178.679H168.376V208.722H153Z" fill="black"/>
<path d="M352 208.722V135.994H380.693C386.186 135.994 390.873 136.977 394.756 138.942C398.662 140.883 401.633 143.641 403.669 147.216C405.729 150.767 406.759 154.946 406.759 159.751C406.759 164.581 405.717 168.736 403.634 172.216C401.55 175.672 398.532 178.324 394.578 180.17C390.648 182.017 385.89 182.94 380.303 182.94H361.091V170.582H377.817C380.752 170.582 383.191 170.18 385.132 169.375C387.073 168.57 388.518 167.363 389.464 165.753C390.435 164.143 390.92 162.143 390.92 159.751C390.92 157.337 390.435 155.301 389.464 153.643C388.518 151.986 387.062 150.732 385.097 149.879C383.155 149.003 380.705 148.565 377.746 148.565H367.376V208.722H352ZM391.276 175.625L409.351 208.722H392.376L374.692 175.625H391.276Z" fill="black"/>
<path d="M530.358 135.722H511.395L491.366 184.585H490.514L470.486 135.722H451.523V208.449H466.438V161.112H467.041L484.001 203.449L485.862 208.094H496.018L514.839 160.935H515.443V208.449H530.358V135.722Z" fill="black"/>
<path d="M625.822 208.722H642.3L617.193 135.994H597.378L572.307 208.722H588.784L607.001 152.614H607.57L625.822 208.722ZM626.852 180.135H587.932V192.138H626.852V180.135Z" fill="black"/>
<path d="M684.527 208.449V135.722H697.808L729.449 181.496H729.982V135.722H745.358V208.449H731.864L700.472 162.71H699.832V208.449H684.527Z" fill="black"/>
<path d="M855.169 161.456H839.615C839.331 159.444 838.751 157.656 837.875 156.094C836.999 154.508 835.875 153.158 834.501 152.045C833.128 150.933 831.542 150.08 829.743 149.489C827.967 148.897 826.038 148.601 823.955 148.601C820.19 148.601 816.911 149.536 814.118 151.406C811.324 153.253 809.158 155.952 807.619 159.503C806.081 163.03 805.311 167.315 805.311 172.358C805.311 177.543 806.081 181.899 807.619 185.426C809.182 188.954 811.36 191.617 814.153 193.416C816.947 195.215 820.179 196.115 823.848 196.115C825.908 196.115 827.813 195.843 829.565 195.298C831.341 194.754 832.915 193.961 834.288 192.919C835.661 191.854 836.798 190.563 837.697 189.048C838.621 187.533 839.26 185.805 839.615 183.864L855.169 183.935C854.767 187.273 853.76 190.492 852.151 193.594C850.564 196.671 848.422 199.429 845.723 201.868C843.048 204.283 839.852 206.2 836.135 207.621C832.442 209.018 828.263 209.716 823.599 209.716C817.113 209.716 811.312 208.248 806.199 205.312C801.109 202.377 797.084 198.127 794.125 192.564C791.189 187 789.722 180.265 789.722 172.358C789.722 164.427 791.213 157.68 794.196 152.116C797.179 146.553 801.227 142.315 806.341 139.403C811.455 136.468 817.207 135 823.599 135C827.813 135 831.72 135.592 835.318 136.776C838.94 137.959 842.148 139.688 844.942 141.96C847.735 144.209 850.008 146.967 851.76 150.234C853.536 153.501 854.672 157.242 855.169 161.456Z" fill="black"/>
</svg>
