<svg width="650" height="162" viewBox="0 0 650 162" fill="none" xmlns="http://www.w3.org/2000/svg">
<path d="M240.955 34.9091H221.364V93.4545H220.545L180.364 34.9091H163.091V128H182.773V69.4091H183.455L223.955 128H240.955V34.9091ZM301.625 98.2727C301.67 107.636 295.261 112.545 288.307 112.545C280.989 112.545 276.261 107.409 276.216 99.1818V58.1818H256.852V102.636C256.898 118.955 266.443 128.909 280.489 128.909C290.989 128.909 298.534 123.5 301.67 115.318H302.398V128H320.989V58.1818H301.625V98.2727ZM336.477 128H355.841V86.0909C355.841 78.3636 360.75 73.2273 367.205 73.2273C373.568 73.2273 377.841 77.5909 377.841 84.4545V128H396.614V85.3636C396.614 78.1364 400.75 73.2273 407.795 73.2273C413.977 73.2273 418.614 77.0909 418.614 84.8636V128H437.932V81.0455C437.932 65.9091 428.932 57.2727 415.932 57.2727C405.705 57.2727 397.75 62.5 394.886 70.5H394.159C391.932 62.4091 384.795 57.2727 375.205 57.2727C365.795 57.2727 358.659 62.2727 355.75 70.5H354.932V58.1818H336.477V128ZM473.136 129.318C483.455 129.318 490.136 124.818 493.545 118.318H494.091V128H512.455V80.9091C512.455 64.2727 498.364 57.2727 482.818 57.2727C466.091 57.2727 455.091 65.2727 452.409 78L470.318 79.4545C471.636 74.8182 475.773 71.4091 482.727 71.4091C489.318 71.4091 493.091 74.7273 493.091 80.4545V80.7273C493.091 85.2273 488.318 85.8182 476.182 87C462.364 88.2727 449.955 92.9091 449.955 108.5C449.955 122.318 459.818 129.318 473.136 129.318ZM478.682 115.955C472.727 115.955 468.455 113.182 468.455 107.864C468.455 102.409 472.955 99.7273 479.773 98.7727C484 98.1818 490.909 97.1818 493.227 95.6364V103.045C493.227 110.364 487.182 115.955 478.682 115.955ZM527.477 128H546.841V88.5C546.841 79.9091 553.114 74 561.659 74C564.341 74 568.023 74.4545 569.841 75.0455V57.8636C568.114 57.4545 565.705 57.1818 563.75 57.1818C555.932 57.1818 549.523 61.7273 546.977 70.3636H546.25V58.1818H527.477V128ZM593.932 154.182C608.341 154.182 615.977 146.818 619.932 135.545L647.068 58.2727L626.568 58.1818L611.977 109.455H611.25L596.795 58.1818H576.432L601.477 130L600.341 132.955C597.795 139.5 592.932 139.818 586.114 137.727L581.75 152.182C584.523 153.364 589.023 154.182 593.932 154.182Z" fill="black"/>
<path d="M39.531 148.612C65.7056 148.612 86.9243 127.393 86.9243 101.219C86.9243 75.0442 65.7056 53.8254 39.531 53.8254V148.612Z" fill="black"/>
<path d="M86.9243 6.20093C60.7497 6.20093 39.531 27.4196 39.531 53.5943C39.531 79.7689 60.7497 100.988 86.9243 100.988L86.9243 6.20093Z" fill="black"/>
<path d="M75.7947 155.882C101.172 149.472 116.548 123.703 110.138 98.3255C103.728 72.9479 77.9593 57.5717 52.5818 63.9818L75.7947 155.882Z" fill="#13E07E"/>
<path d="M86.8689 6.20101C61.4913 12.6111 46.1151 38.3801 52.5252 63.7576C58.9352 89.1352 84.7042 104.511 110.082 98.1013L86.8689 6.20101Z" fill="#13E07E"/>
<path d="M75.8506 155.918C102.025 155.918 123.244 134.699 123.244 108.524C123.244 82.3496 102.025 61.1309 75.8506 61.1309V155.918Z" fill="black"/>
<path d="M123.244 13.5063C97.0693 13.5063 75.8506 34.7251 75.8506 60.8997C75.8506 87.0743 97.0693 108.293 123.244 108.293L123.244 13.5063Z" fill="black"/>
</svg>
