<svg width="671" height="207" viewBox="0 0 671 207" fill="none" xmlns="http://www.w3.org/2000/svg">
<path d="M154.321 140V67.2727H202.474V79.9503H169.697V97.2798H199.278V109.957H169.697V140H154.321ZM233.174 141.065C227.658 141.065 222.888 139.893 218.863 137.55C214.862 135.182 211.772 131.892 209.594 127.678C207.416 123.44 206.327 118.527 206.327 112.94C206.327 107.306 207.416 102.382 209.594 98.1676C211.772 93.9299 214.862 90.6392 218.863 88.2955C222.888 85.928 227.658 84.7443 233.174 84.7443C238.69 84.7443 243.449 85.928 247.45 88.2955C251.474 90.6392 254.576 93.9299 256.754 98.1676C258.932 102.382 260.021 107.306 260.021 112.94C260.021 118.527 258.932 123.44 256.754 127.678C254.576 131.892 251.474 135.182 247.45 137.55C243.449 139.893 238.69 141.065 233.174 141.065ZM233.245 129.347C235.754 129.347 237.85 128.636 239.531 127.216C241.211 125.772 242.478 123.807 243.33 121.321C244.206 118.835 244.644 116.006 244.644 112.834C244.644 109.661 244.206 106.832 243.33 104.347C242.478 101.861 241.211 99.8958 239.531 98.4517C237.85 97.0076 235.754 96.2855 233.245 96.2855C230.712 96.2855 228.581 97.0076 226.853 98.4517C225.148 99.8958 223.858 101.861 222.982 104.347C222.13 106.832 221.704 109.661 221.704 112.834C221.704 116.006 222.13 118.835 222.982 121.321C223.858 123.807 225.148 125.772 226.853 127.216C228.581 128.636 230.712 129.347 233.245 129.347ZM269.857 140V85.4545H284.523V94.9716H285.092C286.086 91.5862 287.755 89.0294 290.099 87.3011C292.442 85.5492 295.141 84.6733 298.195 84.6733C298.953 84.6733 299.77 84.7206 300.646 84.8153C301.522 84.91 302.291 85.0402 302.954 85.206V98.6293C302.244 98.4162 301.261 98.2268 300.006 98.0611C298.752 97.8954 297.603 97.8125 296.562 97.8125C294.336 97.8125 292.348 98.2978 290.596 99.2685C288.868 100.215 287.495 101.541 286.477 103.246C285.482 104.95 284.985 106.915 284.985 109.141V140H269.857ZM310.775 140V85.4545H325.193V95.0781H325.832C326.968 91.8821 328.862 89.3608 331.514 87.5142C334.165 85.6676 337.338 84.7443 341.031 84.7443C344.771 84.7443 347.956 85.6795 350.583 87.5497C353.211 89.3963 354.963 91.9058 355.839 95.0781H356.407C357.52 91.9531 359.532 89.4555 362.444 87.5852C365.38 85.6913 368.848 84.7443 372.849 84.7443C377.939 84.7443 382.07 86.366 385.243 89.6094C388.439 92.8291 390.037 97.3982 390.037 103.317V140H374.944V106.3C374.944 103.269 374.139 100.997 372.529 99.4815C370.92 97.9664 368.907 97.2088 366.493 97.2088C363.746 97.2088 361.604 98.0848 360.065 99.8366C358.526 101.565 357.757 103.849 357.757 106.69V140H343.091V105.98C343.091 103.305 342.321 101.174 340.782 99.5881C339.267 98.0019 337.267 97.2088 334.781 97.2088C333.1 97.2088 331.585 97.6349 330.235 98.4872C328.91 99.3158 327.856 100.488 327.075 102.003C326.294 103.494 325.903 105.246 325.903 107.259V140H310.775ZM417.54 141.03C414.06 141.03 410.959 140.426 408.236 139.219C405.514 137.988 403.359 136.177 401.773 133.786C400.211 131.371 399.429 128.364 399.429 124.766C399.429 121.735 399.986 119.19 401.098 117.131C402.211 115.071 403.726 113.414 405.644 112.159C407.561 110.904 409.739 109.957 412.178 109.318C414.64 108.679 417.221 108.229 419.919 107.969C423.092 107.637 425.649 107.33 427.59 107.045C429.531 106.738 430.94 106.288 431.816 105.696C432.692 105.104 433.13 104.228 433.13 103.068V102.855C433.13 100.606 432.419 98.866 430.999 97.6349C429.602 96.4039 427.614 95.7884 425.033 95.7884C422.31 95.7884 420.144 96.392 418.534 97.5994C416.925 98.7831 415.859 100.275 415.338 102.074L401.347 100.938C402.057 97.6231 403.454 94.7585 405.537 92.3438C407.621 89.9053 410.308 88.035 413.598 86.733C416.913 85.4072 420.748 84.7443 425.104 84.7443C428.134 84.7443 431.034 85.0994 433.804 85.8097C436.598 86.5199 439.072 87.6207 441.226 89.1122C443.404 90.6037 445.121 92.5213 446.375 94.8651C447.63 97.1851 448.257 99.9669 448.257 103.21V140H433.911V132.436H433.485C432.609 134.141 431.437 135.644 429.969 136.946C428.501 138.224 426.738 139.231 424.678 139.964C422.618 140.675 420.239 141.03 417.54 141.03ZM421.873 130.589C424.098 130.589 426.063 130.152 427.767 129.276C429.472 128.376 430.81 127.169 431.78 125.653C432.751 124.138 433.236 122.422 433.236 120.504V114.716C432.763 115.024 432.112 115.308 431.283 115.568C430.478 115.805 429.567 116.03 428.549 116.243C427.531 116.432 426.513 116.61 425.495 116.776C424.477 116.918 423.553 117.048 422.725 117.166C420.949 117.427 419.399 117.841 418.073 118.409C416.747 118.977 415.717 119.747 414.983 120.717C414.249 121.664 413.882 122.848 413.882 124.268C413.882 126.328 414.628 127.902 416.12 128.991C417.635 130.057 419.552 130.589 421.873 130.589ZM475.122 108.466V140H459.994V85.4545H474.412V95.0781H475.051C476.258 91.9058 478.282 89.3963 481.123 87.5497C483.964 85.6795 487.409 84.7443 491.457 84.7443C495.245 84.7443 498.547 85.5729 501.365 87.2301C504.182 88.8873 506.372 91.2547 507.934 94.3324C509.497 97.3864 510.278 101.032 510.278 105.27V140H495.15V107.969C495.174 104.631 494.322 102.027 492.593 100.156C490.865 98.2623 488.486 97.3153 485.456 97.3153C483.42 97.3153 481.62 97.7533 480.058 98.6293C478.519 99.5052 477.312 100.784 476.436 102.464C475.583 104.122 475.145 106.122 475.122 108.466ZM546.846 141.065C541.259 141.065 536.453 139.882 532.428 137.514C528.427 135.123 525.35 131.809 523.195 127.571C521.065 123.333 519.999 118.456 519.999 112.94C519.999 107.353 521.076 102.453 523.231 98.2386C525.409 94.0009 528.498 90.6984 532.499 88.331C536.5 85.9399 541.259 84.7443 546.775 84.7443C551.533 84.7443 555.7 85.6084 559.275 87.3366C562.85 89.0649 565.679 91.4915 567.762 94.6165C569.845 97.7415 570.994 101.411 571.207 105.625H556.931C556.529 102.902 555.463 100.713 553.735 99.0554C552.031 97.3745 549.793 96.5341 547.023 96.5341C544.68 96.5341 542.632 97.1733 540.88 98.4517C539.152 99.7064 537.802 101.541 536.832 103.956C535.861 106.371 535.376 109.295 535.376 112.727C535.376 116.207 535.849 119.167 536.796 121.605C537.767 124.044 539.128 125.902 540.88 127.18C542.632 128.459 544.68 129.098 547.023 129.098C548.752 129.098 550.302 128.743 551.675 128.033C553.072 127.322 554.22 126.293 555.12 124.943C556.043 123.57 556.647 121.925 556.931 120.007H571.207C570.97 124.174 569.834 127.843 567.798 131.016C565.785 134.164 563.004 136.626 559.452 138.402C555.901 140.178 551.699 141.065 546.846 141.065ZM605.75 141.065C600.14 141.065 595.31 139.929 591.262 137.656C587.237 135.36 584.136 132.116 581.958 127.926C579.78 123.712 578.691 118.729 578.691 112.976C578.691 107.365 579.78 102.441 581.958 98.2031C584.136 93.9654 587.202 90.6629 591.155 88.2955C595.132 85.928 599.796 84.7443 605.147 84.7443C608.745 84.7443 612.095 85.3243 615.196 86.4844C618.321 87.6207 621.044 89.3371 623.364 91.6335C625.708 93.9299 627.531 96.8182 628.833 100.298C630.135 103.755 630.786 107.803 630.786 112.443V116.598H584.728V107.223H616.546C616.546 105.045 616.072 103.116 615.125 101.435C614.178 99.7538 612.864 98.4399 611.184 97.4929C609.526 96.5223 607.597 96.0369 605.395 96.0369C603.099 96.0369 601.063 96.5696 599.287 97.6349C597.535 98.6766 596.162 100.085 595.168 101.861C594.174 103.613 593.665 105.566 593.641 107.72V116.634C593.641 119.332 594.138 121.664 595.132 123.629C596.15 125.594 597.583 127.109 599.429 128.175C601.276 129.24 603.466 129.773 605.999 129.773C607.68 129.773 609.219 129.536 610.615 129.062C612.012 128.589 613.208 127.879 614.202 126.932C615.196 125.985 615.954 124.825 616.475 123.452L630.466 124.375C629.756 127.737 628.3 130.672 626.098 133.182C623.92 135.668 621.103 137.609 617.647 139.006C614.214 140.379 610.248 141.065 605.75 141.065Z" fill="black"/>
<path d="M36 157.145C56.9793 157.145 73.9864 140.137 73.9864 119.158C73.9864 98.1788 56.9793 81.1717 36 81.1717V157.145Z" fill="black"/>
<path d="M73.9864 43C53.0071 43 36 60.0071 36 80.9864C36 101.966 53.0071 118.973 73.9864 118.973L73.9864 43Z" fill="black"/>
<path d="M65.0656 162.972C85.4061 157.834 97.7303 137.18 92.5926 116.839C87.4548 96.4986 66.8006 84.1744 46.4601 89.3122L65.0656 162.972Z" fill="#13E07E"/>
<path d="M73.9417 43.0001C53.6012 48.1378 41.277 68.792 46.4147 89.1325C51.5525 109.473 72.2067 121.797 92.5472 116.659L73.9417 43.0001Z" fill="#13E07E"/>
<path d="M65.1106 163C86.0899 163 103.097 145.993 103.097 125.014C103.097 104.034 86.0899 87.0272 65.1106 87.0272V163Z" fill="black"/>
<path d="M103.097 48.8555C82.1177 48.8555 65.1106 65.8626 65.1106 86.8419C65.1106 107.821 82.1177 124.828 103.097 124.828L103.097 48.8555Z" fill="black"/>
</svg>
