<svg width="690" height="266" viewBox="0 0 690 266" fill="none" xmlns="http://www.w3.org/2000/svg">
<path d="M168.321 174V101.273H216.474V113.95H183.697V131.28H213.278V143.957H183.697V174H168.321ZM247.174 175.065C241.658 175.065 236.888 173.893 232.863 171.55C228.862 169.182 225.772 165.892 223.594 161.678C221.416 157.44 220.327 152.527 220.327 146.94C220.327 141.306 221.416 136.382 223.594 132.168C225.772 127.93 228.862 124.639 232.863 122.295C236.888 119.928 241.658 118.744 247.174 118.744C252.69 118.744 257.449 119.928 261.45 122.295C265.474 124.639 268.576 127.93 270.754 132.168C272.932 136.382 274.021 141.306 274.021 146.94C274.021 152.527 272.932 157.44 270.754 161.678C268.576 165.892 265.474 169.182 261.45 171.55C257.449 173.893 252.69 175.065 247.174 175.065ZM247.245 163.347C249.754 163.347 251.85 162.636 253.531 161.216C255.211 159.772 256.478 157.807 257.33 155.321C258.206 152.835 258.644 150.006 258.644 146.834C258.644 143.661 258.206 140.832 257.33 138.347C256.478 135.861 255.211 133.896 253.531 132.452C251.85 131.008 249.754 130.286 247.245 130.286C244.712 130.286 242.581 131.008 240.853 132.452C239.148 133.896 237.858 135.861 236.982 138.347C236.13 140.832 235.704 143.661 235.704 146.834C235.704 150.006 236.13 152.835 236.982 155.321C237.858 157.807 239.148 159.772 240.853 161.216C242.581 162.636 244.712 163.347 247.245 163.347ZM283.857 174V119.455H298.523V128.972H299.092C300.086 125.586 301.755 123.029 304.099 121.301C306.442 119.549 309.141 118.673 312.195 118.673C312.953 118.673 313.77 118.721 314.646 118.815C315.522 118.91 316.291 119.04 316.954 119.206V132.629C316.244 132.416 315.261 132.227 314.006 132.061C312.752 131.895 311.603 131.812 310.562 131.812C308.336 131.812 306.348 132.298 304.596 133.268C302.868 134.215 301.495 135.541 300.477 137.246C299.482 138.95 298.985 140.915 298.985 143.141V174H283.857ZM324.775 174V119.455H339.193V129.078H339.832C340.968 125.882 342.862 123.361 345.514 121.514C348.165 119.668 351.338 118.744 355.031 118.744C358.771 118.744 361.956 119.679 364.583 121.55C367.211 123.396 368.963 125.906 369.839 129.078H370.407C371.52 125.953 373.532 123.455 376.444 121.585C379.38 119.691 382.848 118.744 386.849 118.744C391.939 118.744 396.07 120.366 399.243 123.609C402.439 126.829 404.037 131.398 404.037 137.317V174H388.944V140.3C388.944 137.269 388.139 134.997 386.529 133.482C384.92 131.966 382.907 131.209 380.493 131.209C377.746 131.209 375.604 132.085 374.065 133.837C372.526 135.565 371.757 137.849 371.757 140.69V174H357.091V139.98C357.091 137.305 356.321 135.174 354.782 133.588C353.267 132.002 351.267 131.209 348.781 131.209C347.1 131.209 345.585 131.635 344.235 132.487C342.91 133.316 341.856 134.488 341.075 136.003C340.294 137.494 339.903 139.246 339.903 141.259V174H324.775ZM431.54 175.03C428.06 175.03 424.959 174.426 422.236 173.219C419.514 171.988 417.359 170.177 415.773 167.786C414.211 165.371 413.429 162.364 413.429 158.766C413.429 155.735 413.986 153.19 415.098 151.131C416.211 149.071 417.726 147.414 419.644 146.159C421.561 144.904 423.739 143.957 426.178 143.318C428.64 142.679 431.221 142.229 433.919 141.969C437.092 141.637 439.649 141.33 441.59 141.045C443.531 140.738 444.94 140.288 445.816 139.696C446.692 139.104 447.13 138.228 447.13 137.068V136.855C447.13 134.606 446.419 132.866 444.999 131.635C443.602 130.404 441.614 129.788 439.033 129.788C436.31 129.788 434.144 130.392 432.534 131.599C430.925 132.783 429.859 134.275 429.338 136.074L415.347 134.938C416.057 131.623 417.454 128.759 419.537 126.344C421.621 123.905 424.308 122.035 427.598 120.733C430.913 119.407 434.748 118.744 439.104 118.744C442.134 118.744 445.034 119.099 447.804 119.81C450.598 120.52 453.072 121.621 455.226 123.112C457.404 124.604 459.121 126.521 460.375 128.865C461.63 131.185 462.257 133.967 462.257 137.21V174H447.911V166.436H447.485C446.609 168.141 445.437 169.644 443.969 170.946C442.501 172.224 440.738 173.231 438.678 173.964C436.618 174.675 434.239 175.03 431.54 175.03ZM435.873 164.589C438.098 164.589 440.063 164.152 441.767 163.276C443.472 162.376 444.81 161.169 445.78 159.653C446.751 158.138 447.236 156.422 447.236 154.504V148.716C446.763 149.024 446.112 149.308 445.283 149.568C444.478 149.805 443.567 150.03 442.549 150.243C441.531 150.432 440.513 150.61 439.495 150.776C438.477 150.918 437.553 151.048 436.725 151.166C434.949 151.427 433.399 151.841 432.073 152.409C430.747 152.977 429.717 153.747 428.983 154.717C428.249 155.664 427.882 156.848 427.882 158.268C427.882 160.328 428.628 161.902 430.12 162.991C431.635 164.057 433.552 164.589 435.873 164.589ZM489.122 142.466V174H473.994V119.455H488.412V129.078H489.051C490.258 125.906 492.282 123.396 495.123 121.55C497.964 119.679 501.409 118.744 505.457 118.744C509.245 118.744 512.547 119.573 515.365 121.23C518.182 122.887 520.372 125.255 521.934 128.332C523.497 131.386 524.278 135.032 524.278 139.27V174H509.15V141.969C509.174 138.631 508.322 136.027 506.593 134.156C504.865 132.262 502.486 131.315 499.456 131.315C497.42 131.315 495.62 131.753 494.058 132.629C492.519 133.505 491.312 134.784 490.436 136.464C489.583 138.122 489.145 140.122 489.122 142.466ZM560.846 175.065C555.259 175.065 550.453 173.882 546.428 171.514C542.427 169.123 539.35 165.809 537.195 161.571C535.065 157.333 533.999 152.456 533.999 146.94C533.999 141.353 535.076 136.453 537.231 132.239C539.409 128.001 542.498 124.698 546.499 122.331C550.5 119.94 555.259 118.744 560.775 118.744C565.533 118.744 569.7 119.608 573.275 121.337C576.85 123.065 579.679 125.491 581.762 128.616C583.845 131.741 584.994 135.411 585.207 139.625H570.931C570.529 136.902 569.463 134.713 567.735 133.055C566.031 131.375 563.793 130.534 561.023 130.534C558.68 130.534 556.632 131.173 554.88 132.452C553.152 133.706 551.802 135.541 550.832 137.956C549.861 140.371 549.376 143.295 549.376 146.727C549.376 150.207 549.849 153.167 550.796 155.605C551.767 158.044 553.128 159.902 554.88 161.18C556.632 162.459 558.68 163.098 561.023 163.098C562.752 163.098 564.302 162.743 565.675 162.033C567.072 161.322 568.22 160.293 569.12 158.943C570.043 157.57 570.647 155.925 570.931 154.007H585.207C584.97 158.174 583.834 161.843 581.798 165.016C579.785 168.164 577.004 170.626 573.452 172.402C569.901 174.178 565.699 175.065 560.846 175.065ZM619.75 175.065C614.14 175.065 609.31 173.929 605.262 171.656C601.237 169.36 598.136 166.116 595.958 161.926C593.78 157.712 592.691 152.729 592.691 146.976C592.691 141.365 593.78 136.441 595.958 132.203C598.136 127.965 601.202 124.663 605.155 122.295C609.132 119.928 613.796 118.744 619.147 118.744C622.745 118.744 626.095 119.324 629.196 120.484C632.321 121.621 635.044 123.337 637.364 125.634C639.708 127.93 641.531 130.818 642.833 134.298C644.135 137.755 644.786 141.803 644.786 146.443V150.598H598.728V141.223H630.546C630.546 139.045 630.072 137.116 629.125 135.435C628.178 133.754 626.864 132.44 625.184 131.493C623.526 130.522 621.597 130.037 619.395 130.037C617.099 130.037 615.063 130.57 613.287 131.635C611.535 132.677 610.162 134.085 609.168 135.861C608.174 137.613 607.665 139.566 607.641 141.72V150.634C607.641 153.332 608.138 155.664 609.132 157.629C610.15 159.594 611.583 161.109 613.429 162.175C615.276 163.24 617.466 163.773 619.999 163.773C621.68 163.773 623.219 163.536 624.615 163.062C626.012 162.589 627.208 161.879 628.202 160.932C629.196 159.985 629.954 158.825 630.475 157.452L644.466 158.375C643.756 161.737 642.3 164.672 640.098 167.182C637.92 169.668 635.103 171.609 631.647 173.006C628.214 174.379 624.248 175.065 619.75 175.065Z" fill="black"/>
<path d="M40 203.704C67.5151 203.704 89.8205 181.399 89.8205 153.884C89.8205 126.369 67.5151 104.064 40 104.064V203.704Z" fill="black"/>
<path d="M89.8205 54C62.3054 54 40 76.3054 40 103.82C40 131.336 62.3054 153.641 89.8205 153.641L89.8205 54Z" fill="black"/>
<path d="M78.1205 211.347C104.798 204.608 120.961 177.52 114.223 150.842C107.485 124.165 80.396 108.002 53.7188 114.74L78.1205 211.347Z" fill="#13E07E"/>
<path d="M89.7618 54C63.0846 60.7384 46.9209 87.8271 53.6593 114.504C60.3976 141.182 87.4863 157.345 114.164 150.607L89.7618 54Z" fill="#13E07E"/>
<path d="M78.1795 211.384C105.695 211.384 128 189.079 128 161.564C128 134.049 105.695 111.743 78.1795 111.743V211.384Z" fill="black"/>
<path d="M128 61.6796C100.485 61.6796 78.1795 83.985 78.1795 111.5C78.1795 139.015 100.485 161.321 128 161.321L128 61.6796Z" fill="black"/>
</svg>
