<svg width="90" height="90" viewBox="0 0 90 90" fill="none" xmlns="http://www.w3.org/2000/svg">
<rect width="90" height="89.9999" rx="7" fill="#01353C" style="fill:#01353C;fill:color(display-p3 0.0039 0.2078 0.2353);fill-opacity:1;"/>
<path d="M51.9865 74.6744L47.4219 70.1098L47.7667 69.7978C48.1115 69.4859 48.1279 69.5023 52.6597 74.0341C56.5019 77.8762 57.1751 78.6315 57.0273 78.8614C56.9288 79.0092 56.781 79.157 56.6989 79.1898C56.6168 79.2226 54.4987 77.1866 51.9865 74.6744Z" fill="#CDCBFB" style="fill:#CDCBFB;fill:color(display-p3 0.8039 0.7961 0.9843);fill-opacity:1;"/>
<path d="M32.5293 78.7136C32.4144 78.5987 32.3323 78.4345 32.3323 78.336C32.3323 78.2539 34.3519 76.1522 36.8148 73.6893L41.2973 69.2067L41.6093 69.5515C41.9213 69.8963 41.9049 69.9128 37.4223 74.3953C34.943 76.8746 32.8741 78.9107 32.8249 78.9107C32.7756 78.9107 32.6442 78.8286 32.5293 78.7136Z" fill="#CDCBFB" style="fill:#CDCBFB;fill:color(display-p3 0.8039 0.7961 0.9843);fill-opacity:1;"/>
<path d="M28.9497 77.5314C28.9168 77.4329 28.9004 74.5103 28.9168 71.0293L28.9661 64.7078H29.3602H29.7378L29.7707 71.1443L29.7871 77.5807L29.4094 77.6464C29.196 77.6956 28.9825 77.63 28.9497 77.5314Z" fill="#CDCBFB" style="fill:#CDCBFB;fill:color(display-p3 0.8039 0.7961 0.9843);fill-opacity:1;"/>
<path d="M59.5888 77.6792C59.5888 77.6792 59.5724 74.7894 59.5395 71.2428C59.5067 64.9213 59.5067 64.8063 59.8351 64.7242C60.0157 64.675 60.2127 64.6257 60.2948 64.6257C60.3605 64.6257 60.4098 67.5812 60.4098 71.1935V77.7613L59.9993 77.7285C59.7694 77.7121 59.5888 77.6792 59.5888 77.6792Z" fill="#CDCBFB" style="fill:#CDCBFB;fill:color(display-p3 0.8039 0.7961 0.9843);fill-opacity:1;"/>
<path d="M64.6457 60.7343C64.5472 60.6193 64.5144 60.4059 64.5801 60.2745C64.6622 60.0611 65.516 60.0282 71.1643 60.0282H77.65V60.488V60.9313H71.23C66.337 60.9313 64.7771 60.882 64.6457 60.7343Z" fill="#CDCBFB" style="fill:#CDCBFB;fill:color(display-p3 0.8039 0.7961 0.9843);fill-opacity:1;"/>
<path d="M12.3005 59.9954V59.5356H18.6877C22.8255 59.5356 25.1242 59.6013 25.1899 59.6998C25.2391 59.7984 25.2555 59.9954 25.2063 60.1596C25.1242 60.4223 24.648 60.4387 18.7042 60.4387H12.3005V59.9954Z" fill="#CDCBFB" style="fill:#CDCBFB;fill:color(display-p3 0.8039 0.7961 0.9843);fill-opacity:1;"/>
<path d="M52.0521 53.0664C48.1442 49.1585 47.5695 48.5182 47.7501 48.3047C47.8815 48.1569 48.0621 48.042 48.1606 48.042C48.2592 48.042 50.3609 50.0616 52.8238 52.5245C57.1257 56.8264 57.2899 57.0235 56.9943 57.2862C56.8302 57.434 56.6495 57.5653 56.6167 57.5653C56.5839 57.5653 54.515 55.5457 52.0521 53.0664Z" fill="#CDCBFB" style="fill:#CDCBFB;fill:color(display-p3 0.8039 0.7961 0.9843);fill-opacity:1;"/>
<path d="M73.7094 53.0499C69.4239 48.7644 69.2104 48.5181 69.4896 48.2554C69.7523 47.9763 69.9986 48.1897 74.3169 52.5081C78.2576 56.4487 78.8323 57.0891 78.6517 57.3026C78.5203 57.4503 78.389 57.5653 78.3233 57.5653C78.274 57.5653 76.1887 55.5293 73.7094 53.0499Z" fill="#CDCBFB" style="fill:#CDCBFB;fill:color(display-p3 0.8039 0.7961 0.9843);fill-opacity:1;"/>
<path d="M10.9049 56.9085C10.5929 56.5637 10.6093 56.5637 15.0918 52.0648C17.5712 49.5854 19.6893 47.5494 19.7878 47.5494C19.8863 47.5494 20.067 47.6643 20.1983 47.8121C20.3789 48.0256 19.7878 48.6824 15.8143 52.6559L11.2168 57.2534L10.9049 56.9085Z" fill="#CDCBFB" style="fill:#CDCBFB;fill:color(display-p3 0.8039 0.7961 0.9843);fill-opacity:1;"/>
<path d="M32.4472 56.9414C32.2009 56.6622 32.4472 56.3831 36.7327 52.0976L41.2973 47.533L41.6093 47.8778C41.9213 48.2226 41.9049 48.239 37.4223 52.7215C34.943 55.2009 32.8577 57.2369 32.8084 57.2369C32.7592 57.2369 32.595 57.1055 32.4472 56.9414Z" fill="#CDCBFB" style="fill:#CDCBFB;fill:color(display-p3 0.8039 0.7961 0.9843);fill-opacity:1;"/>
<path d="M69.6866 42.131C69.3746 41.7862 69.3911 41.7862 73.9557 37.2051L78.5532 32.6076L78.8816 32.936L79.2099 33.2644L74.5961 37.8783L69.9986 42.4758L69.6866 42.131Z" fill="#CDCBFB" style="fill:#CDCBFB;fill:color(display-p3 0.8039 0.7961 0.9843);fill-opacity:1;"/>
<path d="M48.0457 41.9995C47.7994 41.7204 48.0457 41.4413 52.3641 37.1229C56.9287 32.5583 56.9451 32.5419 57.2899 32.8539L57.6347 33.1658L53.0701 37.7305C50.5579 40.2426 48.4562 42.2951 48.4069 42.2951C48.3577 42.2951 48.1935 42.1637 48.0457 41.9995Z" fill="#CDCBFB" style="fill:#CDCBFB;fill:color(display-p3 0.8039 0.7961 0.9843);fill-opacity:1;"/>
<path d="M15.5351 37.4021L10.9705 32.8375L11.3153 32.5255C11.6601 32.2135 11.6765 32.2299 16.2083 36.7617L20.7565 41.3099L20.4281 41.6383L20.0997 41.9667L15.5351 37.4021Z" fill="#CDCBFB" style="fill:#CDCBFB;fill:color(display-p3 0.8039 0.7961 0.9843);fill-opacity:1;"/>
<path d="M37.0939 37.4513C32.5785 32.936 32.5785 32.936 32.9069 32.6076C33.2353 32.2792 33.2353 32.2792 37.8164 36.8602C41.7899 40.8338 42.381 41.4905 42.2004 41.704C42.069 41.8518 41.8884 41.9667 41.7899 41.9667C41.6914 41.9667 39.5732 39.9307 37.0939 37.4513Z" fill="#CDCBFB" style="fill:#CDCBFB;fill:color(display-p3 0.8039 0.7961 0.9843);fill-opacity:1;"/>
<path d="M64.695 30.0954C64.6129 29.8984 64.5801 29.6849 64.6293 29.6193C64.6622 29.5372 67.6177 29.4879 71.1807 29.4879H77.65V29.9477V30.391L71.2464 30.4238L64.8264 30.4567L64.695 30.0954Z" fill="#CDCBFB" style="fill:#CDCBFB;fill:color(display-p3 0.8039 0.7961 0.9843);fill-opacity:1;"/>
<path d="M12.2347 29.6849C12.1855 29.6028 12.1691 29.4222 12.2019 29.2745C12.2347 29.0117 12.7109 28.9789 18.6712 28.9461C24.8778 28.9132 25.0912 28.9296 25.1733 29.2252C25.2226 29.4058 25.2226 29.6028 25.1733 29.6849C25.0584 29.8491 12.3497 29.8656 12.2347 29.6849Z" fill="#CDCBFB" style="fill:#CDCBFB;fill:color(display-p3 0.8039 0.7961 0.9843);fill-opacity:1;"/>
<path d="M29.5409 25.186C29.5409 25.1532 29.5081 22.2305 29.4588 18.6839L29.3767 12.2474H29.8693H30.3619V18.7331V25.2188H29.9514C29.7215 25.2188 29.5409 25.2024 29.5409 25.186Z" fill="#CDCBFB" style="fill:#CDCBFB;fill:color(display-p3 0.8039 0.7961 0.9843);fill-opacity:1;"/>
<path d="M60.0319 25.1039C59.9663 25.0546 59.917 22.132 59.917 18.6182V12.2474H60.4096H60.9022V18.7331V25.2188H60.5245C60.3111 25.2188 60.0812 25.1696 60.0319 25.1039Z" fill="#CDCBFB" style="fill:#CDCBFB;fill:color(display-p3 0.8039 0.7961 0.9843);fill-opacity:1;"/>
<path d="M48.1444 20.3258C47.9802 20.0467 48.4892 19.4884 52.512 15.4656C56.8467 11.1309 57.0766 10.9338 57.3393 11.213C57.602 11.5085 57.3886 11.7384 53.0538 16.0731C50.5581 18.5689 48.4728 20.6214 48.4235 20.6214C48.3743 20.6214 48.2593 20.49 48.1444 20.3258Z" fill="#CDCBFB" style="fill:#CDCBFB;fill:color(display-p3 0.8039 0.7961 0.9843);fill-opacity:1;"/>
<path d="M37.0939 15.7775C32.5785 11.2622 32.5785 11.2622 32.9069 10.9338C33.2353 10.6054 33.2353 10.6054 37.8164 15.1864C41.7899 19.16 42.381 19.8168 42.2004 20.0302C42.069 20.178 41.8884 20.2929 41.7899 20.2929C41.6914 20.2929 39.5732 18.2569 37.0939 15.7775Z" fill="#CDCBFB" style="fill:#CDCBFB;fill:color(display-p3 0.8039 0.7961 0.9843);fill-opacity:1;"/>
</svg>
