<svg width="90" height="90" viewBox="0 0 90 90" fill="none" xmlns="http://www.w3.org/2000/svg">
<rect width="90" height="89.9999" rx="7" fill="#01353C" style="fill:#01353C;fill:color(display-p3 0.0039 0.2078 0.2353);fill-opacity:1;"/>
<path d="M39.9648 71.4897C33.3858 64.9108 32.4006 63.8588 32.5843 63.6417C32.7179 63.4914 32.9016 63.3745 33.0018 63.3745C33.102 63.3745 36.5918 66.7809 40.7496 70.9387C48.0132 78.2023 48.2971 78.5196 47.9965 78.7867C47.8295 78.937 47.6626 79.0706 47.6125 79.0706C47.5791 79.0706 44.1393 75.6642 39.9648 71.4897Z" fill="#CDCBFB" style="fill:#CDCBFB;fill:color(display-p3 0.8039 0.7961 0.9843);fill-opacity:1;"/>
<path d="M10.8436 78.2857C10.5932 77.9852 10.9438 77.6011 18.1239 70.421C25.3374 63.2075 25.7048 62.8735 25.972 63.1574C26.2224 63.458 25.8718 63.842 18.6917 71.0221C11.4781 78.2356 11.1108 78.5696 10.8436 78.2857Z" fill="#CDCBFB" style="fill:#CDCBFB;fill:color(display-p3 0.8039 0.7961 0.9843);fill-opacity:1;"/>
<path d="M59.4846 78.2858C59.4846 78.1689 59.4846 64.7939 59.4846 64.5267C59.4846 64.4766 59.6683 64.4432 59.9021 64.4432L60.3362 64.4766V71.3895V78.3192L59.9188 78.3693C59.685 78.4027 59.4846 78.3693 59.4846 78.2858Z" fill="#CDCBFB" style="fill:#CDCBFB;fill:color(display-p3 0.8039 0.7961 0.9843);fill-opacity:1;"/>
<path d="M64.8281 59.918V59.4505L71.7411 59.4004C78.5371 59.367 78.6707 59.367 78.7709 59.701C78.821 59.8847 78.821 60.1017 78.7709 60.2019C78.7041 60.3021 76.2161 60.3689 71.7411 60.3689H64.8281V59.918Z" fill="#CDCBFB" style="fill:#CDCBFB;fill:color(display-p3 0.8039 0.7961 0.9843);fill-opacity:1;"/>
<path d="M41.5844 59.7845C41.5343 59.7344 41.5343 59.534 41.5677 59.3169L41.6345 58.9496L48.4807 58.9997L55.3101 59.0331V59.4505V59.868H48.4974C44.7403 59.868 41.6345 59.8346 41.5844 59.7845Z" fill="#CDCBFB" style="fill:#CDCBFB;fill:color(display-p3 0.8039 0.7961 0.9843);fill-opacity:1;"/>
<path d="M32.9684 56.9959C32.8516 56.879 32.7681 56.712 32.7681 56.6118C32.7681 56.5283 37.8776 51.3353 44.1227 45.0903C55.4439 33.7691 55.4606 33.7524 55.8112 34.0696L56.1619 34.3869L44.7572 45.7916C38.4788 52.07 33.3191 57.1963 33.269 57.1963C33.2022 57.1963 33.0853 57.1128 32.9684 56.9959Z" fill="#CDCBFB" style="fill:#CDCBFB;fill:color(display-p3 0.8039 0.7961 0.9843);fill-opacity:1;"/>
<path d="M18.4913 49.3483C11.0106 41.8676 10.9939 41.8509 11.3112 41.5002L11.6285 41.1496L19.1926 48.7137C26.3059 55.8271 26.7234 56.2779 26.4729 56.5618C26.3226 56.7287 26.1557 56.8623 26.1056 56.8623C26.0555 56.8623 22.6324 53.4893 18.4913 49.3483Z" fill="#CDCBFB" style="fill:#CDCBFB;fill:color(display-p3 0.8039 0.7961 0.9843);fill-opacity:1;"/>
<path d="M59.9856 48.0959V41.1663H60.4531H60.9207L60.8873 44.556C60.8706 46.4094 60.8539 49.532 60.8372 51.4856L60.8205 55.0256H60.403H59.9856V48.0959Z" fill="#CDCBFB" style="fill:#CDCBFB;fill:color(display-p3 0.8039 0.7961 0.9843);fill-opacity:1;"/>
<path d="M28.8273 48.6302C28.7939 48.5133 28.7772 45.3908 28.7939 41.6839L28.844 34.9379L29.2281 34.9045L29.5954 34.8711L29.6121 40.9492C29.6121 44.2888 29.6288 47.2777 29.6288 47.595C29.6288 48.697 29.5954 48.7805 29.2447 48.7972C29.0611 48.8139 28.8774 48.7304 28.8273 48.6302Z" fill="#CDCBFB" style="fill:#CDCBFB;fill:color(display-p3 0.8039 0.7961 0.9843);fill-opacity:1;"/>
<path d="M70.5388 41.1162L62.9746 33.552L63.3253 33.2348C63.6759 32.9175 63.6926 32.9342 71.2234 40.465C77.6187 46.8603 78.7375 48.0625 78.5872 48.2963C78.487 48.4466 78.3367 48.5969 78.2532 48.6303C78.1697 48.6636 74.6966 45.274 70.5388 41.1162Z" fill="#CDCBFB" style="fill:#CDCBFB;fill:color(display-p3 0.8039 0.7961 0.9843);fill-opacity:1;"/>
<path d="M41.0835 30.847L34.2708 30.8136V30.3961C34.2708 30.1289 34.3709 29.9787 34.5212 29.9787C34.6548 29.9787 37.7606 29.9787 41.4008 29.9787C47.5957 29.9787 48.0465 29.9954 48.1634 30.2625C48.3304 30.6967 48.3137 30.7635 48.0966 30.8303C47.9798 30.8637 44.8238 30.8804 41.0835 30.847Z" fill="#CDCBFB" style="fill:#CDCBFB;fill:color(display-p3 0.8039 0.7961 0.9843);fill-opacity:1;"/>
<path d="M10.8938 29.8618V29.3942H17.9069L24.9201 29.3775V29.8451V30.3126H17.9069H10.8938V29.8618Z" fill="#CDCBFB" style="fill:#CDCBFB;fill:color(display-p3 0.8039 0.7961 0.9843);fill-opacity:1;"/>
<path d="M63.4754 26.5389C63.2917 26.3218 64.2936 25.2531 71.0229 18.5238C78.7707 10.776 78.7707 10.776 79.1047 11.11C79.4386 11.4439 79.4386 11.4439 71.7576 19.125C67.533 23.3495 63.993 26.806 63.8929 26.806C63.7927 26.806 63.609 26.6891 63.4754 26.5389Z" fill="#CDCBFB" style="fill:#CDCBFB;fill:color(display-p3 0.8039 0.7961 0.9843);fill-opacity:1;"/>
<path d="M49.082 18.9914L41.4343 11.3438L41.785 11.0265C42.1356 10.7092 42.1523 10.7259 49.7666 18.3402L57.3976 25.9712L57.0636 26.3051L56.7296 26.6391L49.082 18.9914Z" fill="#CDCBFB" style="fill:#CDCBFB;fill:color(display-p3 0.8039 0.7961 0.9843);fill-opacity:1;"/>
<path d="M29.562 25.5203C29.2782 25.4535 29.2615 24.9693 29.2615 18.5239V11.611H29.7624H30.2634L30.23 18.574C30.1966 23.0323 30.1131 25.537 30.0129 25.5537C29.9294 25.5871 29.7123 25.5704 29.562 25.5203Z" fill="#CDCBFB" style="fill:#CDCBFB;fill:color(display-p3 0.8039 0.7961 0.9843);fill-opacity:1;"/>
</svg>
