<svg width="90" height="90" viewBox="0 0 90 90" fill="none" xmlns="http://www.w3.org/2000/svg">
<rect width="90" height="89.9999" rx="7" fill="#01353C" style="fill:#01353C;fill:color(display-p3 0.0039 0.2078 0.2353);fill-opacity:1;"/>
<path d="M26.0424 79.0862C25.913 78.9732 25.8699 77.5847 25.8986 72.6603L25.9418 66.3797L26.2724 66.3313L26.5886 66.2828V72.7411C26.5886 79.4092 26.5886 79.4576 26.0424 79.0862Z" fill="#CDCBFB" style="fill:#CDCBFB;fill:color(display-p3 0.8039 0.7961 0.9843);fill-opacity:1;"/>
<path d="M63.4421 78.9894C63.4134 78.8925 63.3702 76.0348 63.3559 72.6281L63.3127 66.4605H63.6433C63.8158 66.4605 63.9883 66.4443 64.0314 66.4282C64.0745 66.3959 64.1177 69.2375 64.1177 72.7411C64.1033 79.1024 64.1033 79.1186 63.8014 79.1347C63.6433 79.1509 63.4709 79.0863 63.4421 78.9894Z" fill="#CDCBFB" style="fill:#CDCBFB;fill:color(display-p3 0.8039 0.7961 0.9843);fill-opacity:1;"/>
<path d="M30.2681 62.2949C30.2249 62.2142 30.2106 62.0204 30.2393 61.859C30.2824 61.5522 30.4837 61.5522 35.9456 61.5361H41.6088L41.6519 61.9881L41.695 62.4241H36.0175C32.8984 62.4241 30.3112 62.3595 30.2681 62.2949Z" fill="#CDCBFB" style="fill:#CDCBFB;fill:color(display-p3 0.8039 0.7961 0.9843);fill-opacity:1;"/>
<path d="M67.6968 61.972V61.5038L73.4174 61.5199L79.1237 61.5361L79.1668 61.9882L79.21 62.4241H73.4606H67.6968V61.972Z" fill="#CDCBFB" style="fill:#CDCBFB;fill:color(display-p3 0.8039 0.7961 0.9843);fill-opacity:1;"/>
<path d="M48.7668 61.9881C48.7237 61.8751 48.7237 61.6652 48.7812 61.5361C48.8531 61.3262 49.6149 61.2939 54.4587 61.2939C58.0665 61.2939 60.0932 61.3585 60.1506 61.4553C60.1938 61.5522 60.2081 61.746 60.165 61.9074C60.0932 62.1657 59.6763 62.1819 54.4587 62.1819C50.0892 62.1819 48.8099 62.1335 48.7668 61.9881Z" fill="#CDCBFB" style="fill:#CDCBFB;fill:color(display-p3 0.8039 0.7961 0.9843);fill-opacity:1;"/>
<path d="M11.3525 61.6975V61.2939H16.9295C20.0054 61.2939 22.5495 61.3423 22.5926 61.3908C22.6357 61.4392 22.6501 61.6168 22.607 61.7944C22.5351 62.085 22.3483 62.1012 16.9438 62.1012H11.3525V61.6975Z" fill="#CDCBFB" style="fill:#CDCBFB;fill:color(display-p3 0.8039 0.7961 0.9843);fill-opacity:1;"/>
<path d="M26.0137 45.1483C26.0137 38.125 26.0137 32.3449 26.0137 32.2803C26.0137 32.1996 26.1862 32.1512 26.4161 32.1512H26.8042L26.833 44.664C26.8473 51.542 26.833 57.3221 26.8042 57.4997C26.7611 57.7096 26.6174 57.8387 26.373 57.871L26.0137 57.9033V45.1483Z" fill="#CDCBFB" style="fill:#CDCBFB;fill:color(display-p3 0.8039 0.7961 0.9843);fill-opacity:1;"/>
<path d="M63.744 57.758C63.4565 57.6611 63.4565 57.5158 63.4421 44.8739V32.0705H63.8446H64.2471V44.89C64.2471 51.9456 64.2039 57.758 64.1464 57.7903C64.0746 57.8226 63.9021 57.8064 63.744 57.758Z" fill="#CDCBFB" style="fill:#CDCBFB;fill:color(display-p3 0.8039 0.7961 0.9843);fill-opacity:1;"/>
<path d="M34.6808 28.2278C31.8636 28.2117 29.7506 28.1309 29.7506 28.0502C29.7506 27.3721 29.6357 27.3882 35.6007 27.3882H41.2638L41.2207 27.8403C41.1776 28.2601 41.1488 28.2763 40.387 28.2763C39.9558 28.2763 37.383 28.2601 34.6808 28.2278Z" fill="#CDCBFB" style="fill:#CDCBFB;fill:color(display-p3 0.8039 0.7961 0.9843);fill-opacity:1;"/>
<path d="M71.5489 28.2278L67.2656 28.1956V27.7919V27.3883H73.0294H78.7788L78.7357 27.8081C78.6926 28.2278 78.6926 28.2278 77.2552 28.244C76.4647 28.2601 73.8918 28.2601 71.5489 28.2278Z" fill="#CDCBFB" style="fill:#CDCBFB;fill:color(display-p3 0.8039 0.7961 0.9843);fill-opacity:1;"/>
<path d="M10.8208 27.9534C10.7777 27.8242 10.7777 27.5982 10.8351 27.469C10.907 27.2591 11.6688 27.2268 16.5127 27.2268C19.5886 27.2268 22.1471 27.2914 22.1902 27.356C22.2333 27.4367 22.219 27.6466 22.1759 27.8404L22.104 28.1956H16.4983C11.7407 28.1794 10.8926 28.1471 10.8208 27.9534Z" fill="#CDCBFB" style="fill:#CDCBFB;fill:color(display-p3 0.8039 0.7961 0.9843);fill-opacity:1;"/>
<path d="M48.3931 27.7757C48.3644 27.5497 48.3931 27.3398 48.4937 27.2914C48.58 27.2591 51.1385 27.2429 54.1713 27.2591L59.6907 27.3075L59.7195 27.6627C59.7338 27.8888 59.6476 28.0341 59.4464 28.0986C59.2883 28.1471 56.7585 28.1794 53.8119 28.1955H48.465L48.3931 27.7757Z" fill="#CDCBFB" style="fill:#CDCBFB;fill:color(display-p3 0.8039 0.7961 0.9843);fill-opacity:1;"/>
<path d="M63.4421 23.5941C63.4134 23.5134 63.399 20.591 63.4134 17.1359L63.4565 10.8391H63.8158H64.1751L64.2039 16.8937C64.2183 20.2197 64.2039 23.1259 64.1608 23.3519C64.1177 23.6425 64.0027 23.7717 63.8014 23.7717C63.629 23.7717 63.4708 23.691 63.4421 23.5941Z" fill="#CDCBFB" style="fill:#CDCBFB;fill:color(display-p3 0.8039 0.7961 0.9843);fill-opacity:1;"/>
<path d="M25.8699 17.3134C25.8699 11.0974 25.8699 10.9359 26.1573 10.8391C26.3155 10.7906 26.4879 10.7745 26.5454 10.8068C26.6173 10.8552 26.646 13.7614 26.6173 17.2811L26.5885 23.6748H26.2292H25.8699V17.3134Z" fill="#CDCBFB" style="fill:#CDCBFB;fill:color(display-p3 0.8039 0.7961 0.9843);fill-opacity:1;"/>
</svg>
