<svg width="90" height="90" viewBox="0 0 90 90" fill="none" xmlns="http://www.w3.org/2000/svg">
<rect width="90" height="89.9999" rx="7" fill="#01353C" style="fill:#01353C;fill:color(display-p3 0.0039 0.2078 0.2353);fill-opacity:1;"/>
<path d="M17.6255 78.868C17.5929 78.8354 17.5603 78.6233 17.5603 78.4113V78.0362H27.8349C37.5061 78.0362 38.1096 78.0525 38.1096 78.3298C38.1096 78.4766 38.0443 78.6886 37.9791 78.7701C37.8649 78.9332 17.7886 79.0148 17.6255 78.868Z" fill="#CDCBFB" style="fill:#CDCBFB;fill:color(display-p3 0.8039 0.7961 0.9843);fill-opacity:1;"/>
<path d="M49.3464 72.7195C49.167 72.5075 50.7163 70.8929 61.0399 60.5694C72.293 49.3162 72.9617 48.6801 73.2553 48.9085C73.5651 49.1368 72.9617 49.7728 61.6759 61.0749C55.136 67.6148 49.7215 72.9805 49.6725 72.9805C49.6073 72.9805 49.4768 72.8663 49.3464 72.7195Z" fill="#CDCBFB" style="fill:#CDCBFB;fill:color(display-p3 0.8039 0.7961 0.9843);fill-opacity:1;"/>
<path d="M11.0366 71.2517C10.8246 71.1865 10.792 69.9144 10.792 60.9934V50.8003H11.2486H11.689L11.6564 61.026C11.6237 67.6637 11.5585 71.2517 11.4443 71.268C11.3628 71.3006 11.1671 71.2843 11.0366 71.2517Z" fill="#CDCBFB" style="fill:#CDCBFB;fill:color(display-p3 0.8039 0.7961 0.9843);fill-opacity:1;"/>
<path d="M44.6982 71.1538C44.633 71.056 44.6003 66.4732 44.6003 60.9281L44.6167 50.8818L45.0407 50.8329L45.4484 50.784L45.4158 61.0097C45.3669 70.5993 45.3506 71.2354 45.0896 71.2843C44.9265 71.3006 44.7471 71.2517 44.6982 71.1538Z" fill="#CDCBFB" style="fill:#CDCBFB;fill:color(display-p3 0.8039 0.7961 0.9843);fill-opacity:1;"/>
<path d="M51.3524 45.4673L51.4013 45.0106L61.4639 45.0269C67.009 45.0269 71.5755 45.0595 71.6081 45.1085C71.6407 45.1411 71.706 45.3205 71.7386 45.4999C71.7875 45.8261 71.6896 45.8261 61.5455 45.875L51.3035 45.9076L51.3524 45.4673Z" fill="#CDCBFB" style="fill:#CDCBFB;fill:color(display-p3 0.8039 0.7961 0.9843);fill-opacity:1;"/>
<path d="M17.6255 44.9454C17.5929 44.9128 17.5603 44.7007 17.5603 44.4887V44.1136H27.7371C34.4237 44.1136 37.9628 44.1625 38.028 44.2767C38.077 44.3746 38.0933 44.5703 38.0443 44.7334C37.9628 44.9943 37.3104 45.0106 27.8186 45.0106C22.2573 45.0106 17.6582 44.978 17.6255 44.9454Z" fill="#CDCBFB" style="fill:#CDCBFB;fill:color(display-p3 0.8039 0.7961 0.9843);fill-opacity:1;"/>
<path d="M15.8804 39.4329C15.6357 39.1393 16.1902 38.5522 27.5086 27.2338C38.8434 15.8991 39.4305 15.3446 39.6914 15.6218C39.9687 15.8991 39.4142 16.4699 28.0631 27.8209C16.7121 39.172 16.1413 39.7102 15.8804 39.4329Z" fill="#CDCBFB" style="fill:#CDCBFB;fill:color(display-p3 0.8039 0.7961 0.9843);fill-opacity:1;"/>
<path d="M44.6331 38.1608C44.6331 38.1119 44.6331 33.5454 44.6331 28.0167C44.6331 18.5412 44.6494 17.9377 44.9103 17.8399C45.0734 17.7746 45.2528 17.7583 45.3343 17.8073C45.3996 17.8399 45.4485 22.4553 45.4485 28.0656V38.2424H45.0408C44.8125 38.2424 44.6331 38.2097 44.6331 38.1608Z" fill="#CDCBFB" style="fill:#CDCBFB;fill:color(display-p3 0.8039 0.7961 0.9843);fill-opacity:1;"/>
<path d="M78.3926 38.1608C78.3926 38.1119 78.3926 36.7256 78.3926 35.0621C78.3926 33.3986 78.3926 28.8321 78.3926 24.8854V17.742L78.8003 17.8236L79.208 17.8888V28.0656V38.2424H78.8003C78.572 38.2424 78.3926 38.2098 78.3926 38.1608Z" fill="#CDCBFB" style="fill:#CDCBFB;fill:color(display-p3 0.8039 0.7961 0.9843);fill-opacity:1;"/>
<path d="M51.3524 11.5446L51.4013 11.088L61.4802 11.0717L71.5755 11.0554L71.706 11.3978C71.7712 11.5936 71.8038 11.7893 71.7549 11.8708C71.7223 11.936 67.1068 11.985 61.4966 11.985H51.3035L51.3524 11.5446Z" fill="#CDCBFB" style="fill:#CDCBFB;fill:color(display-p3 0.8039 0.7961 0.9843);fill-opacity:1;"/>
</svg>
