<svg width="90" height="90" viewBox="0 0 90 90" fill="none" xmlns="http://www.w3.org/2000/svg">
<rect width="90" height="89.9999" rx="7" fill="#01353C" style="fill:#01353C;fill:color(display-p3 0.0039 0.2078 0.2353);fill-opacity:1;"/>
<path d="M17.308 78.4144C17.3421 78.1972 17.4104 78.0266 17.4957 78.0266C17.564 78.0266 22.5632 78.0266 28.6204 78.0266H39.6256V78.4144V78.8023H28.4327H17.2568L17.308 78.4144Z" fill="#CDCBFB" style="fill:#CDCBFB;fill:color(display-p3 0.8039 0.7961 0.9843);fill-opacity:1;"/>
<path d="M50.6363 78.7092C50.5852 78.6626 50.5681 78.492 50.6193 78.3213C50.7046 78.0266 50.9605 78.0266 61.6928 78.0266H72.6809V78.4144V78.8023H61.7098C55.6697 78.8023 50.6875 78.7557 50.6363 78.7092Z" fill="#CDCBFB" style="fill:#CDCBFB;fill:color(display-p3 0.8039 0.7961 0.9843);fill-opacity:1;"/>
<path d="M10.8564 60.7237V50.6393L11.2489 50.6859L11.6243 50.7324L11.6754 60.7858L11.7096 70.8237H11.283H10.8564V60.7237Z" fill="#CDCBFB" style="fill:#CDCBFB;fill:color(display-p3 0.8039 0.7961 0.9843);fill-opacity:1;"/>
<path d="M78.1863 61.0382V51.0314H78.6981H79.21V61.0382V71.0451H78.6981H78.1863V61.0382Z" fill="#CDCBFB" style="fill:#CDCBFB;fill:color(display-p3 0.8039 0.7961 0.9843);fill-opacity:1;"/>
<path d="M29.9682 64.0791C29.934 64.0481 29.8999 63.8464 29.8999 63.6447V63.2878L36.0082 63.3189L42.0995 63.3654V63.7222V64.0791L36.0765 64.1101C32.7493 64.1256 30.0023 64.1101 29.9682 64.0791Z" fill="#CDCBFB" style="fill:#CDCBFB;fill:color(display-p3 0.8039 0.7961 0.9843);fill-opacity:1;"/>
<path d="M47.9858 62.9775V62.5121L53.9918 62.5431L59.9977 62.5897V62.9775V63.3654L53.9918 63.4119L47.9858 63.443V62.9775Z" fill="#CDCBFB" style="fill:#CDCBFB;fill:color(display-p3 0.8039 0.7961 0.9843);fill-opacity:1;"/>
<path d="M26.9651 59.6109C26.675 59.5488 26.658 59.1455 26.658 54.1188V48.6887L27.1357 48.7352L27.5964 48.7818L27.5623 54.2118C27.5281 57.1906 27.4599 59.6419 27.3916 59.6574C27.3063 59.6729 27.1186 59.6574 26.9651 59.6109Z" fill="#CDCBFB" style="fill:#CDCBFB;fill:color(display-p3 0.8039 0.7961 0.9843);fill-opacity:1;"/>
<path d="M63.001 54.1653C63.001 51.1865 63.0351 48.7197 63.0863 48.6732C63.1375 48.6266 63.3763 48.6266 63.5982 48.6732L64.0247 48.7352L63.9906 54.1187L63.9394 59.4867L63.4787 59.5333L63.001 59.5798V54.1653Z" fill="#CDCBFB" style="fill:#CDCBFB;fill:color(display-p3 0.8039 0.7961 0.9843);fill-opacity:1;"/>
<path d="M25.9243 41.9244C25.9584 41.1642 25.9754 38.6974 25.9754 36.4167V32.2589H26.402H26.8286V37.7665V43.2741H26.3679H25.8901L25.9243 41.9244Z" fill="#CDCBFB" style="fill:#CDCBFB;fill:color(display-p3 0.8039 0.7961 0.9843);fill-opacity:1;"/>
<path d="M62.3866 43.181C62.2501 43.119 62.1818 41.552 62.1647 37.6889L62.1306 32.2589H62.6595H63.1714L63.1373 37.7199C63.0861 43.4448 63.0861 43.4448 62.3866 43.181Z" fill="#CDCBFB" style="fill:#CDCBFB;fill:color(display-p3 0.8039 0.7961 0.9843);fill-opacity:1;"/>
<path d="M10.79 31.0177V20.9333H11.2166H11.6432V31.0177V41.1021H11.2166H10.79V31.0177Z" fill="#CDCBFB" style="fill:#CDCBFB;fill:color(display-p3 0.8039 0.7961 0.9843);fill-opacity:1;"/>
<path d="M77.6744 40.8383C77.6232 38.8525 77.7085 20.7005 77.7427 20.654C77.7938 20.623 77.9815 20.6385 78.1692 20.7005C78.5275 20.7936 78.5275 20.8091 78.5275 30.878V40.9469H78.101C77.8621 40.9469 77.6744 40.9004 77.6744 40.8383Z" fill="#CDCBFB" style="fill:#CDCBFB;fill:color(display-p3 0.8039 0.7961 0.9843);fill-opacity:1;"/>
<path d="M29.8658 27.9924C29.8146 27.7597 29.8487 27.558 29.9682 27.5114C30.0706 27.4804 32.8005 27.4649 36.0424 27.4804C41.8265 27.5269 41.9289 27.5269 41.8777 27.8372C41.8436 28.0079 41.7753 28.1785 41.7241 28.2251C41.69 28.2716 39.0112 28.3182 35.8035 28.3492L29.9511 28.3957L29.8658 27.9924Z" fill="#CDCBFB" style="fill:#CDCBFB;fill:color(display-p3 0.8039 0.7961 0.9843);fill-opacity:1;"/>
<path d="M47.9858 27.1391V26.6737H53.9577H59.9295V27.1391V27.6045H53.9577H47.9858V27.1391Z" fill="#CDCBFB" style="fill:#CDCBFB;fill:color(display-p3 0.8039 0.7961 0.9843);fill-opacity:1;"/>
<path d="M17.1315 11.6321L17.1827 11.1977H28.2732H39.3638L39.4149 11.6321L39.4661 12.051H28.2732H17.0803L17.1315 11.6321Z" fill="#CDCBFB" style="fill:#CDCBFB;fill:color(display-p3 0.8039 0.7961 0.9843);fill-opacity:1;"/>
<path d="M50.3748 11.7952V11.3453H61.4653L72.5558 11.3608V11.7952V12.2451H61.4653H50.3748V11.7952Z" fill="#CDCBFB" style="fill:#CDCBFB;fill:color(display-p3 0.8039 0.7961 0.9843);fill-opacity:1;"/>
</svg>
